<?xml version="1.0" encoding="UTF-8"?>
<!DOCTYPE svg PUBLIC "-//W3C//DTD SVG 1.1//EN" "http://www.w3.org/Graphics/SVG/1.1/DTD/svg11.dtd">
<!-- Creator: CorelDRAW -->
<svg xmlns="http://www.w3.org/2000/svg" xml:space="preserve" width="132mm" height="134mm" style="shape-rendering:geometricPrecision; text-rendering:geometricPrecision; image-rendering:optimizeQuality; fill-rule:evenodd; clip-rule:evenodd" viewBox="0 0 132 134" xmlns:xlink="http://www.w3.org/1999/xlink">
 <defs>
  <style type="text/css">
   <![CDATA[
    .str0 {stroke:#1F1A17;stroke-width:0.0762}
    .fil2 {fill:none}
    .fil1 {fill:none;fill-rule:nonzero}
    .fil0 {fill:#1F1A17;fill-rule:nonzero}
   ]]>
  </style>
 </defs>
 <g id="Layer_x0020_1">
  <metadata id="CorelCorpID_0Corel-Layer"/>
  <path class="fil0" d="M67.264 6.2916l0 -6.0607 2.0871 0c0.4713,0 0.8311,0.0296 1.0795,0.0874 0.3471,0.0791 0.6435,0.2244 0.889,0.4333 0.3189,0.2709 0.5588,0.6152 0.7168,1.0357 0.1595,0.4205 0.2385,0.9003 0.2385,1.4408 0,0.46 -0.0536,0.8678 -0.1623,1.2234 -0.1072,0.3556 -0.2441,0.6505 -0.4134,0.8834 -0.1679,0.2328 -0.3514,0.4162 -0.5518,0.5489 -0.1989,0.134 -0.4402,0.2356 -0.7225,0.3048 -0.2836,0.0691 -0.6081,0.103 -0.9736,0.103l-2.1873 0zm0.8016 -0.7154l1.294 0c0.3993,0 0.714,-0.0367 0.9412,-0.1115 0.2272,-0.0748 0.4078,-0.1792 0.5433,-0.3147 0.1905,-0.1891 0.3386,-0.4459 0.4445,-0.7662 0.1058,-0.3218 0.1594,-0.7098 0.1594,-1.1684 0,-0.6336 -0.1044,-1.1205 -0.3118,-1.4605 -0.2089,-0.3415 -0.4615,-0.5687 -0.7592,-0.6844 -0.2145,-0.0833 -0.5617,-0.1242 -1.0372,-0.1242l-1.2742 0 0 4.6299z"/>
  <path id="1" class="fil0" d="M73.0059 4.0959c0,-0.8128 0.2258,-1.4153 0.6788,-1.8062 0.3767,-0.3246 0.8368,-0.4883 1.38,-0.4883 0.604,0 1.0979,0.1976 1.4803,0.5941 0.3838,0.3951 0.5743,0.9412 0.5743,1.6383 0,0.5659 -0.0846,1.0104 -0.254,1.3335 -0.1693,0.3246 -0.4163,0.5758 -0.7394,0.755 -0.3246,0.1792 -0.6773,0.2681 -1.0612,0.2681 -0.6138,0 -1.1105,-0.1962 -1.4901,-0.5913 -0.3796,-0.3937 -0.5687,-0.961 -0.5687,-1.7032zm0.7648 0c0,0.563 0.1228,0.9836 0.3683,1.263 0.2456,0.2808 0.5546,0.4205 0.9257,0.4205 0.3697,0 0.6774,-0.1411 0.9229,-0.422 0.2441,-0.2808 0.3669,-0.7098 0.3669,-1.2855 0,-0.5433 -0.1228,-0.9553 -0.3697,-1.2347 -0.247,-0.2794 -0.5532,-0.4191 -0.9201,-0.4191 -0.3711,0 -0.6801,0.1397 -0.9257,0.4177 -0.2455,0.278 -0.3683,0.6985 -0.3683,1.2601z"/>
  <path class="fil0" d="M60.1513 132.089l0.7564 -0.0664c0.0352,0.3034 0.1185,0.5518 0.2497,0.7465 0.1313,0.1948 0.3345,0.3514 0.6096,0.4713 0.2752,0.12 0.5856,0.1792 0.93,0.1792 0.3062,0 0.5757,-0.0451 0.8099,-0.1354 0.2343,-0.0917 0.4093,-0.2159 0.5236,-0.374 0.1143,-0.1594 0.1721,-0.3316 0.1721,-0.5193 0,-0.1905 -0.055,-0.3556 -0.1665,-0.4981 -0.1101,-0.1425 -0.2921,-0.261 -0.5447,-0.357 -0.1637,-0.0635 -0.5221,-0.1623 -1.0795,-0.2963 -0.556,-0.1341 -0.9468,-0.2597 -1.1698,-0.3782 -0.2893,-0.151 -0.5052,-0.3401 -0.6477,-0.5645 -0.1411,-0.2243 -0.2117,-0.4755 -0.2117,-0.7549 0,-0.3048 0.0861,-0.5913 0.2597,-0.8566 0.1735,-0.2667 0.4275,-0.4684 0.7606,-0.6067 0.3344,-0.1369 0.7041,-0.2061 1.1119,-0.2061 0.4502,0 0.8453,0.072 1.1896,0.2174 0.3429,0.1439 0.6068,0.357 0.7916,0.6378 0.1835,0.2808 0.2837,0.5997 0.2978,0.9553l-0.7691 0.0579c-0.0423,-0.3825 -0.182,-0.6731 -0.4205,-0.8679 -0.2385,-0.1961 -0.5898,-0.2935 -1.0555,-0.2935 -0.4854,0 -0.8382,0.0889 -1.0612,0.2667 -0.2215,0.1778 -0.333,0.3923 -0.333,0.6421 0,0.2187 0.079,0.3979 0.2357,0.5376 0.1552,0.1411 0.5574,0.2851 1.2093,0.4318 0.6519,0.1482 1.0992,0.2766 1.342,0.3867 0.3527,0.1636 0.6138,0.3697 0.7817,0.618 0.1679,0.2498 0.2512,0.5377 0.2512,0.8622 0,0.3232 -0.0917,0.6266 -0.2766,0.9116 -0.1848,0.285 -0.4501,0.5066 -0.7959,0.666 -0.3457,0.1581 -0.7351,0.2371 -1.1669,0.2371 -0.549,0 -1.009,-0.079 -1.3787,-0.2399 -0.3711,-0.1594 -0.6618,-0.3993 -0.8735,-0.7211 -0.2102,-0.3203 -0.3217,-0.6844 -0.3316,-1.0893z"/>
  <path id="1" class="fil0" d="M65.6984 131.841c0,-0.8128 0.2258,-1.4153 0.6788,-1.8062 0.3767,-0.3246 0.8368,-0.4883 1.38,-0.4883 0.604,0 1.0979,0.1976 1.4803,0.5941 0.3838,0.3951 0.5743,0.9412 0.5743,1.6383 0,0.5659 -0.0846,1.0104 -0.254,1.3335 -0.1693,0.3246 -0.4163,0.5758 -0.7394,0.755 -0.3246,0.1792 -0.6773,0.2681 -1.0612,0.2681 -0.6138,0 -1.1105,-0.1962 -1.4901,-0.5913 -0.3796,-0.3937 -0.5687,-0.961 -0.5687,-1.7032zm0.7648 0c0,0.563 0.1228,0.9836 0.3683,1.263 0.2456,0.2808 0.5546,0.4205 0.9257,0.4205 0.3697,0 0.6774,-0.1411 0.9229,-0.422 0.2441,-0.2808 0.3669,-0.7098 0.3669,-1.2855 0,-0.5433 -0.1228,-0.9553 -0.3697,-1.2347 -0.247,-0.2794 -0.5532,-0.4191 -0.9201,-0.4191 -0.3711,0 -0.6801,0.1397 -0.9257,0.4177 -0.2455,0.278 -0.3683,0.6985 -0.3683,1.2601z"/>
  <polygon id="12" class="fil0" points="70.6684,134.036 70.6684,127.976 71.412,127.976 71.412,134.036 "/>
  <path id="123" class="fil0" d="M73.2521 134.036l-0.69 0 0 -6.0607 0.7436 0 0 2.1618c0.3147,-0.3937 0.7155,-0.5913 1.2023,-0.5913 0.2709,0 0.5263,0.0551 0.7676,0.1637 0.2413,0.1087 0.4389,0.2625 0.5955,0.4586 0.1553,0.1976 0.278,0.4347 0.3655,0.7141 0.0889,0.2779 0.1327,0.5757 0.1327,0.8918 0,0.7535 -0.1863,1.3349 -0.5588,1.7455 -0.3712,0.4107 -0.8185,0.6153 -1.3392,0.6153 -0.5179,0 -0.9243,-0.2159 -1.2192,-0.6491l0 0.5503zm-0.0085 -2.2282c0,0.5264 0.072,0.906 0.2145,1.1402 0.2343,0.3839 0.5518,0.5758 0.9511,0.5758 0.326,0 0.6068,-0.1411 0.8439,-0.4248 0.237,-0.2822 0.3556,-0.7027 0.3556,-1.2629 0,-0.5729 -0.1143,-0.9963 -0.3415,-1.2686 -0.2272,-0.2724 -0.5024,-0.4092 -0.8241,-0.4092 -0.326,0 -0.6068,0.1411 -0.8439,0.4233 -0.237,0.2822 -0.3556,0.6914 -0.3556,1.2262z"/>
  <polygon class="fil0" points="37.016,14.0658 37.016,8.0051 41.1054,8.0051 41.1054,8.7205 37.8189,8.7205 37.8189,10.5973 40.6623,10.5973 40.6623,11.3127 37.8189,11.3127 37.8189,14.0658 "/>
  <path id="1" class="fil0" d="M44.9168 13.5239c-0.2766,0.2343 -0.5419,0.3994 -0.7959,0.4967 -0.2554,0.096 -0.5292,0.144 -0.8213,0.144 -0.4826,0 -0.8523,-0.1171 -1.1119,-0.3528 -0.2583,-0.2357 -0.3881,-0.5376 -0.3881,-0.9031 0,-0.2159 0.048,-0.4121 0.1468,-0.5899 0.0973,-0.1778 0.2257,-0.3203 0.3838,-0.4275 0.1594,-0.1073 0.3372,-0.1891 0.5362,-0.2442 0.1454,-0.0381 0.3655,-0.0762 0.6604,-0.1114 0.6012,-0.072 1.0442,-0.1567 1.3279,-0.2569 0.0028,-0.1016 0.0042,-0.1665 0.0042,-0.1933 0,-0.3034 -0.0705,-0.5179 -0.2117,-0.6406 -0.189,-0.1694 -0.4727,-0.2526 -0.8466,-0.2526 -0.35,0 -0.6082,0.0607 -0.7761,0.1834 -0.1666,0.1228 -0.2893,0.3401 -0.3698,0.652l-0.7267 -0.1002c0.0663,-0.3105 0.175,-0.5631 0.326,-0.7536 0.151,-0.1919 0.3711,-0.34 0.6576,-0.4431 0.2864,-0.103 0.618,-0.1552 0.9962,-0.1552 0.3754,0 0.6788,0.0452 0.913,0.1327 0.2343,0.0889 0.4064,0.1989 0.5179,0.333 0.1101,0.1341 0.1863,0.302 0.2314,0.5066 0.024,0.127 0.0367,0.3556 0.0367,0.6858l0 0.992c0,0.6929 0.0155,1.1303 0.048,1.3123 0.031,0.1835 0.0945,0.3599 0.1877,0.5278l-0.7776 0c-0.0762,-0.1538 -0.127,-0.3344 -0.1481,-0.5419zm-0.0621 -1.6623c-0.271,0.1115 -0.6759,0.2046 -1.215,0.2823 -0.3062,0.0437 -0.5235,0.0931 -0.6491,0.1481 -0.127,0.0551 -0.2258,0.1355 -0.2935,0.2427 -0.0692,0.1059 -0.1044,0.223 -0.1044,0.3528 0,0.199 0.0762,0.3641 0.2257,0.4967 0.1496,0.1313 0.3698,0.1976 0.659,0.1976 0.2865,0 0.5419,-0.0621 0.7649,-0.1877 0.2229,-0.1256 0.388,-0.2977 0.4924,-0.515 0.0805,-0.168 0.12,-0.4163 0.12,-0.7437l0 -0.2738z"/>
  <path class="fil0" d="M98.5766 13.0901l0.7564 -0.0664c0.0352,0.3034 0.1185,0.5518 0.2497,0.7465 0.1313,0.1948 0.3345,0.3514 0.6096,0.4713 0.2752,0.12 0.5856,0.1792 0.93,0.1792 0.3062,0 0.5757,-0.0451 0.8099,-0.1354 0.2343,-0.0917 0.4093,-0.2159 0.5236,-0.374 0.1143,-0.1594 0.1721,-0.3316 0.1721,-0.5193 0,-0.1905 -0.055,-0.3556 -0.1665,-0.4981 -0.1101,-0.1425 -0.2921,-0.261 -0.5447,-0.357 -0.1637,-0.0635 -0.5221,-0.1623 -1.0795,-0.2963 -0.556,-0.1341 -0.9468,-0.2597 -1.1698,-0.3782 -0.2893,-0.151 -0.5052,-0.3401 -0.6477,-0.5645 -0.1411,-0.2243 -0.2117,-0.4755 -0.2117,-0.7549 0,-0.3048 0.0861,-0.5913 0.2597,-0.8566 0.1735,-0.2667 0.4275,-0.4684 0.7606,-0.6067 0.3344,-0.1369 0.7041,-0.2061 1.1119,-0.2061 0.4502,0 0.8453,0.072 1.1896,0.2174 0.3429,0.1439 0.6068,0.357 0.7916,0.6378 0.1835,0.2808 0.2837,0.5997 0.2978,0.9553l-0.7691 0.0579c-0.0423,-0.3825 -0.182,-0.6731 -0.4205,-0.8679 -0.2385,-0.1961 -0.5898,-0.2935 -1.0555,-0.2935 -0.4854,0 -0.8382,0.0889 -1.0612,0.2667 -0.2215,0.1778 -0.333,0.3923 -0.333,0.6421 0,0.2187 0.079,0.3979 0.2357,0.5376 0.1552,0.1411 0.5574,0.2851 1.2093,0.4318 0.6519,0.1482 1.0992,0.2766 1.342,0.3867 0.3527,0.1636 0.6138,0.3697 0.7817,0.618 0.1679,0.2498 0.2512,0.5377 0.2512,0.8622 0,0.3232 -0.0917,0.6266 -0.2766,0.9116 -0.1848,0.285 -0.4501,0.5066 -0.7959,0.666 -0.3457,0.1581 -0.7351,0.2371 -1.1669,0.2371 -0.549,0 -1.009,-0.079 -1.3787,-0.2399 -0.3711,-0.1594 -0.6618,-0.3993 -0.8735,-0.7211 -0.2102,-0.3203 -0.3217,-0.6844 -0.3316,-1.0893z"/>
  <path id="1" class="fil0" d="M104.124 12.8417c0,-0.8128 0.2258,-1.4153 0.6788,-1.8062 0.3767,-0.3246 0.8368,-0.4883 1.38,-0.4883 0.604,0 1.0979,0.1976 1.4803,0.5941 0.3838,0.3951 0.5743,0.9412 0.5743,1.6383 0,0.5659 -0.0846,1.0104 -0.254,1.3335 -0.1693,0.3246 -0.4163,0.5758 -0.7394,0.755 -0.3246,0.1792 -0.6773,0.2681 -1.0612,0.2681 -0.6138,0 -1.1105,-0.1962 -1.4901,-0.5913 -0.3796,-0.3937 -0.5687,-0.961 -0.5687,-1.7032zm0.7648 0c0,0.563 0.1228,0.9836 0.3683,1.263 0.2456,0.2808 0.5546,0.4205 0.9257,0.4205 0.3697,0 0.6774,-0.1411 0.9229,-0.422 0.2441,-0.2808 0.3669,-0.7098 0.3669,-1.2855 0,-0.5433 -0.1228,-0.9553 -0.3697,-1.2347 -0.247,-0.2794 -0.5532,-0.4191 -0.9201,-0.4191 -0.3711,0 -0.6801,0.1397 -0.9257,0.4177 -0.2455,0.278 -0.3683,0.6985 -0.3683,1.2601z"/>
  <polygon id="12" class="fil0" points="109.094,15.0374 109.094,8.9767 109.837,8.9767 109.837,15.0374 "/>
  <path class="fil0" d="M9.167 33.4987l0.7564 -0.0664c0.0352,0.3034 0.1185,0.5518 0.2497,0.7465 0.1313,0.1948 0.3345,0.3514 0.6096,0.4713 0.2752,0.12 0.5856,0.1792 0.93,0.1792 0.3062,0 0.5757,-0.0451 0.8099,-0.1354 0.2343,-0.0917 0.4093,-0.2159 0.5236,-0.374 0.1143,-0.1594 0.1721,-0.3316 0.1721,-0.5193 0,-0.1905 -0.055,-0.3556 -0.1665,-0.4981 -0.1101,-0.1425 -0.2921,-0.261 -0.5447,-0.357 -0.1637,-0.0635 -0.5221,-0.1623 -1.0795,-0.2963 -0.556,-0.1341 -0.9468,-0.2597 -1.1698,-0.3782 -0.2893,-0.151 -0.5052,-0.3401 -0.6477,-0.5645 -0.1411,-0.2243 -0.2117,-0.4755 -0.2117,-0.7549 0,-0.3048 0.0861,-0.5913 0.2597,-0.8566 0.1735,-0.2667 0.4275,-0.4684 0.7606,-0.6067 0.3344,-0.1369 0.7041,-0.2061 1.1119,-0.2061 0.4502,0 0.8453,0.072 1.1896,0.2174 0.3429,0.1439 0.6068,0.357 0.7916,0.6378 0.1835,0.2808 0.2837,0.5997 0.2978,0.9553l-0.7691 0.0579c-0.0423,-0.3825 -0.182,-0.6731 -0.4205,-0.8679 -0.2385,-0.1961 -0.5898,-0.2935 -1.0555,-0.2935 -0.4854,0 -0.8382,0.0889 -1.0612,0.2667 -0.2215,0.1778 -0.333,0.3923 -0.333,0.6421 0,0.2187 0.079,0.3979 0.2357,0.5376 0.1552,0.1411 0.5574,0.2851 1.2093,0.4318 0.6519,0.1482 1.0992,0.2766 1.342,0.3867 0.3527,0.1636 0.6138,0.3697 0.7817,0.618 0.1679,0.2498 0.2512,0.5377 0.2512,0.8622 0,0.3232 -0.0917,0.6266 -0.2766,0.9116 -0.1848,0.285 -0.4501,0.5066 -0.7959,0.666 -0.3457,0.1581 -0.7351,0.2371 -1.1669,0.2371 -0.549,0 -1.009,-0.079 -1.3787,-0.2399 -0.3711,-0.1594 -0.6618,-0.3993 -0.8735,-0.7211 -0.2102,-0.3203 -0.3217,-0.6844 -0.3316,-1.0893z"/>
  <path id="1" class="fil0" d="M14.9949 30.2418l0 -0.8565 0.7451 0 0 0.8565 -0.7451 0zm0 5.2042l0 -4.39 0.7451 0 0 4.39 -0.7451 0z"/>
  <path id="12" class="fil0" d="M17.5589 35.446l-0.69 0 0 -6.0607 0.7436 0 0 2.1618c0.3147,-0.3937 0.7155,-0.5913 1.2023,-0.5913 0.2709,0 0.5263,0.0551 0.7676,0.1637 0.2413,0.1087 0.4389,0.2625 0.5955,0.4586 0.1553,0.1976 0.278,0.4347 0.3655,0.7141 0.0889,0.2779 0.1327,0.5757 0.1327,0.8918 0,0.7535 -0.1863,1.3349 -0.5588,1.7455 -0.3712,0.4107 -0.8185,0.6153 -1.3392,0.6153 -0.5179,0 -0.9243,-0.2159 -1.2192,-0.6491l0 0.5503zm-0.0085 -2.2282c0,0.5264 0.072,0.906 0.2145,1.1402 0.2343,0.3839 0.5518,0.5758 0.9511,0.5758 0.326,0 0.6068,-0.1411 0.8439,-0.4248 0.237,-0.2822 0.3556,-0.7027 0.3556,-1.2629 0,-0.5729 -0.1143,-0.9963 -0.3415,-1.2686 -0.2272,-0.2724 -0.5024,-0.4092 -0.8241,-0.4092 -0.326,0 -0.6068,0.1411 -0.8439,0.4233 -0.237,0.2822 -0.3556,0.6914 -0.3556,1.2262z"/>
  <path class="fil0" d="M117.651 39.0097l0 -6.0607 2.6868 0c0.5405,0 0.9511,0.055 1.2319,0.1636 0.2808,0.1087 0.5052,0.3006 0.6745,0.5758 0.168,0.2766 0.2512,0.5814 0.2512,0.9144 0,0.4304 -0.1383,0.7916 -0.4177,1.0865 -0.278,0.295 -0.7084,0.4826 -1.2897,0.5631 0.213,0.1016 0.3739,0.2018 0.484,0.302 0.2342,0.2144 0.4558,0.484 0.666,0.8057l1.0541 1.6496 -1.0089 0 -0.8015 -1.2615c-0.2343,-0.3627 -0.4276,-0.6421 -0.58,-0.834 -0.151,-0.1933 -0.2865,-0.3288 -0.4064,-0.405 -0.12,-0.0776 -0.2413,-0.1312 -0.3655,-0.1623 -0.0917,-0.0183 -0.2399,-0.0282 -0.4473,-0.0282l-0.9299 0 0 2.691 -0.8016 0zm0.8016 -3.3853l1.7243 0c0.3655,0 0.6534,-0.0381 0.8594,-0.1143 0.2075,-0.0762 0.3641,-0.1975 0.4713,-0.364 0.1073,-0.1665 0.1609,-0.3472 0.1609,-0.5433 0,-0.2865 -0.103,-0.5221 -0.3119,-0.707 -0.2074,-0.1848 -0.5362,-0.2766 -0.9863,-0.2766l-1.9177 0 0 2.0052z"/>
  <path id="1" class="fil0" d="M126.663 37.5958l0.769 0.0945c-0.1213,0.4502 -0.3457,0.7987 -0.6731,1.0471 -0.3288,0.2469 -0.7479,0.3711 -1.2573,0.3711 -0.642,0 -1.1515,-0.1976 -1.5268,-0.5927 -0.3768,-0.3951 -0.5645,-0.9497 -0.5645,-1.6637 0,-0.7394 0.1905,-1.3123 0.5701,-1.7201 0.381,-0.4079 0.8735,-0.6125 1.4803,-0.6125 0.587,0 1.0668,0.2004 1.4379,0.5998 0.3726,0.3993 0.5588,0.9623 0.5588,1.6862 0,0.0452 -0.0014,0.1115 -0.0042,0.199l-3.2738 0c0.0268,0.4826 0.1637,0.8523 0.4092,1.1077 0.2456,0.2569 0.5504,0.3853 0.9173,0.3853 0.2723,0 0.5051,-0.072 0.6985,-0.2159 0.1933,-0.1426 0.3457,-0.3712 0.4586,-0.6858zm-2.4427 -1.2037l2.4511 0c-0.0324,-0.3683 -0.127,-0.6463 -0.2808,-0.8298 -0.237,-0.2864 -0.5447,-0.4303 -0.9214,-0.4303 -0.3415,0 -0.6294,0.1143 -0.8622,0.3429 -0.2329,0.2286 -0.3613,0.5348 -0.3867,0.9172z"/>
  <polygon class="fil0" points="123.434,63.3765 123.434,57.3158 124.237,57.3158 124.237,62.6611 127.221,62.6611 127.221,63.3765 "/>
  <path id="1" class="fil0" d="M130.947 62.8346c-0.2766,0.2343 -0.5419,0.3994 -0.7959,0.4967 -0.2554,0.096 -0.5292,0.144 -0.8213,0.144 -0.4826,0 -0.8523,-0.1171 -1.1119,-0.3528 -0.2583,-0.2357 -0.3881,-0.5376 -0.3881,-0.9031 0,-0.2159 0.048,-0.4121 0.1468,-0.5899 0.0973,-0.1778 0.2257,-0.3203 0.3838,-0.4275 0.1594,-0.1073 0.3372,-0.1891 0.5362,-0.2442 0.1454,-0.0381 0.3655,-0.0762 0.6604,-0.1114 0.6012,-0.072 1.0442,-0.1567 1.3279,-0.2569 0.0028,-0.1016 0.0042,-0.1665 0.0042,-0.1933 0,-0.3034 -0.0705,-0.5179 -0.2117,-0.6406 -0.189,-0.1694 -0.4727,-0.2526 -0.8466,-0.2526 -0.35,0 -0.6082,0.0607 -0.7761,0.1834 -0.1666,0.1228 -0.2893,0.3401 -0.3698,0.652l-0.7267 -0.1002c0.0663,-0.3105 0.175,-0.5631 0.326,-0.7536 0.151,-0.1919 0.3711,-0.34 0.6576,-0.4431 0.2864,-0.103 0.618,-0.1552 0.9962,-0.1552 0.3754,0 0.6788,0.0452 0.913,0.1327 0.2343,0.0889 0.4064,0.1989 0.5179,0.333 0.1101,0.1341 0.1863,0.302 0.2314,0.5066 0.024,0.127 0.0367,0.3556 0.0367,0.6858l0 0.992c0,0.6929 0.0155,1.1303 0.048,1.3123 0.031,0.1835 0.0945,0.3599 0.1877,0.5278l-0.7776 0c-0.0762,-0.1538 -0.127,-0.3344 -0.1481,-0.5419zm-0.0621 -1.6623c-0.271,0.1115 -0.6759,0.2046 -1.215,0.2823 -0.3062,0.0437 -0.5235,0.0931 -0.6491,0.1481 -0.127,0.0551 -0.2258,0.1355 -0.2935,0.2427 -0.0692,0.1059 -0.1044,0.223 -0.1044,0.3528 0,0.199 0.0762,0.3641 0.2257,0.4967 0.1496,0.1313 0.3698,0.1976 0.659,0.1976 0.2865,0 0.5419,-0.0621 0.7649,-0.1877 0.2229,-0.1256 0.388,-0.2977 0.4924,-0.515 0.0805,-0.168 0.12,-0.4163 0.12,-0.7437l0 -0.2738z"/>
  <path class="fil0" d="M1.1567 64.996l0 -6.0607 1.208 0 1.4337 4.2912c0.1326,0.3993 0.23,0.6985 0.2892,0.8974 0.0692,-0.2201 0.1764,-0.5447 0.3232,-0.9722l1.4506 -4.2164 1.0795 0 0 6.0607 -0.7733 0 0 -5.073 -1.7611 5.073 -0.7239 0 -1.7526 -5.159 0 5.159 -0.7733 0z"/>
  <path id="1" class="fil0" d="M8.1432 59.7918l0 -0.8565 0.7451 0 0 0.8565 -0.7451 0zm0 5.2042l0 -4.39 0.7451 0 0 4.39 -0.7451 0z"/>
  <path id="12" class="fil0" d="M10.7072 64.996l-0.69 0 0 -6.0607 0.7436 0 0 2.1618c0.3147,-0.3937 0.7155,-0.5913 1.2023,-0.5913 0.2709,0 0.5263,0.0551 0.7676,0.1637 0.2413,0.1087 0.4389,0.2625 0.5955,0.4586 0.1553,0.1976 0.278,0.4347 0.3655,0.7141 0.0889,0.2779 0.1327,0.5757 0.1327,0.8918 0,0.7535 -0.1863,1.3349 -0.5588,1.7455 -0.3712,0.4107 -0.8185,0.6153 -1.3392,0.6153 -0.5179,0 -0.9243,-0.2159 -1.2192,-0.6491l0 0.5503zm-0.0085 -2.2282c0,0.5264 0.072,0.906 0.2145,1.1402 0.2343,0.3839 0.5518,0.5758 0.9511,0.5758 0.326,0 0.6068,-0.1411 0.8439,-0.4248 0.237,-0.2822 0.3556,-0.7027 0.3556,-1.2629 0,-0.5729 -0.1143,-0.9963 -0.3415,-1.2686 -0.2272,-0.2724 -0.5024,-0.4092 -0.8241,-0.4092 -0.326,0 -0.6068,0.1411 -0.8439,0.4233 -0.237,0.2822 -0.3556,0.6914 -0.3556,1.2262z"/>
  <polygon class="fil0" points="6.7365,95.4427 6.7365,89.382 7.5394,89.382 7.5394,94.7273 10.5239,94.7273 10.5239,95.4427 "/>
  <path id="1" class="fil0" d="M14.2493 94.9008c-0.2766,0.2343 -0.5419,0.3994 -0.7959,0.4967 -0.2554,0.096 -0.5292,0.144 -0.8213,0.144 -0.4826,0 -0.8523,-0.1171 -1.1119,-0.3528 -0.2583,-0.2357 -0.3881,-0.5376 -0.3881,-0.9031 0,-0.2159 0.048,-0.4121 0.1468,-0.5899 0.0973,-0.1778 0.2257,-0.3203 0.3838,-0.4275 0.1594,-0.1073 0.3372,-0.1891 0.5362,-0.2442 0.1454,-0.0381 0.3655,-0.0762 0.6604,-0.1114 0.6012,-0.072 1.0442,-0.1567 1.3279,-0.2569 0.0028,-0.1016 0.0042,-0.1665 0.0042,-0.1933 0,-0.3034 -0.0705,-0.5179 -0.2117,-0.6406 -0.189,-0.1694 -0.4727,-0.2526 -0.8466,-0.2526 -0.35,0 -0.6082,0.0607 -0.7761,0.1834 -0.1666,0.1228 -0.2893,0.3401 -0.3698,0.652l-0.7267 -0.1002c0.0663,-0.3105 0.175,-0.5631 0.326,-0.7536 0.151,-0.1919 0.3711,-0.34 0.6576,-0.4431 0.2864,-0.103 0.618,-0.1552 0.9962,-0.1552 0.3754,0 0.6788,0.0452 0.913,0.1327 0.2343,0.0889 0.4064,0.1989 0.5179,0.333 0.1101,0.1341 0.1863,0.302 0.2314,0.5066 0.024,0.127 0.0367,0.3556 0.0367,0.6858l0 0.992c0,0.6929 0.0155,1.1303 0.048,1.3123 0.031,0.1835 0.0945,0.3599 0.1877,0.5278l-0.7776 0c-0.0762,-0.1538 -0.127,-0.3344 -0.1481,-0.5419zm-0.0621 -1.6623c-0.271,0.1115 -0.6759,0.2046 -1.215,0.2823 -0.3062,0.0437 -0.5235,0.0931 -0.6491,0.1481 -0.127,0.0551 -0.2258,0.1355 -0.2935,0.2427 -0.0692,0.1059 -0.1044,0.223 -0.1044,0.3528 0,0.199 0.0762,0.3641 0.2257,0.4967 0.1496,0.1313 0.3698,0.1976 0.659,0.1976 0.2865,0 0.5419,-0.0621 0.7649,-0.1877 0.2229,-0.1256 0.388,-0.2977 0.4924,-0.515 0.0805,-0.168 0.12,-0.4163 0.12,-0.7437l0 -0.2738z"/>
  <path id="12" class="fil0" d="M16.7794 95.4427l-0.69 0 0 -6.0607 0.7436 0 0 2.1618c0.3147,-0.3937 0.7155,-0.5913 1.2023,-0.5913 0.2709,0 0.5263,0.0551 0.7676,0.1637 0.2413,0.1087 0.4389,0.2625 0.5955,0.4586 0.1553,0.1976 0.278,0.4347 0.3655,0.7141 0.0889,0.2779 0.1327,0.5757 0.1327,0.8918 0,0.7535 -0.1863,1.3349 -0.5588,1.7455 -0.3712,0.4107 -0.8185,0.6153 -1.3392,0.6153 -0.5179,0 -0.9243,-0.2159 -1.2192,-0.6491l0 0.5503zm-0.0085 -2.2282c0,0.5264 0.072,0.906 0.2145,1.1402 0.2343,0.3839 0.5518,0.5758 0.9511,0.5758 0.326,0 0.6068,-0.1411 0.8439,-0.4248 0.237,-0.2822 0.3556,-0.7027 0.3556,-1.2629 0,-0.5729 -0.1143,-0.9963 -0.3415,-1.2686 -0.2272,-0.2724 -0.5024,-0.4092 -0.8241,-0.4092 -0.326,0 -0.6068,0.1411 -0.8439,0.4233 -0.237,0.2822 -0.3556,0.6914 -0.3556,1.2262z"/>
  <path class="fil0" d="M116.342 84.4794l0 -6.0607 1.208 0 1.4337 4.2912c0.1326,0.3993 0.23,0.6985 0.2892,0.8974 0.0692,-0.2201 0.1764,-0.5447 0.3232,-0.9722l1.4506 -4.2164 1.0795 0 0 6.0607 -0.7733 0 0 -5.073 -1.7611 5.073 -0.7239 0 -1.7526 -5.159 0 5.159 -0.7733 0z"/>
  <path id="1" class="fil0" d="M123.329 79.2752l0 -0.8565 0.7451 0 0 0.8565 -0.7451 0zm0 5.2042l0 -4.39 0.7451 0 0 4.39 -0.7451 0z"/>
  <path class="fil0" d="M37.042 98.4072l0 -6.0607 2.0871 0c0.4713,0 0.8311,0.0296 1.0795,0.0874 0.3471,0.0791 0.6435,0.2244 0.889,0.4333 0.3189,0.2709 0.5588,0.6152 0.7168,1.0357 0.1595,0.4205 0.2385,0.9003 0.2385,1.4408 0,0.46 -0.0536,0.8678 -0.1623,1.2234 -0.1072,0.3556 -0.2441,0.6505 -0.4134,0.8834 -0.1679,0.2328 -0.3514,0.4162 -0.5518,0.5489 -0.1989,0.134 -0.4402,0.2356 -0.7225,0.3048 -0.2836,0.0691 -0.6081,0.103 -0.9736,0.103l-2.1873 0zm0.8016 -0.7154l1.294 0c0.3993,0 0.714,-0.0367 0.9412,-0.1115 0.2272,-0.0748 0.4078,-0.1792 0.5433,-0.3147 0.1905,-0.1891 0.3386,-0.4459 0.4445,-0.7662 0.1058,-0.3218 0.1594,-0.7098 0.1594,-1.1684 0,-0.6336 -0.1044,-1.1205 -0.3118,-1.4605 -0.2089,-0.3415 -0.4615,-0.5687 -0.7592,-0.6844 -0.2145,-0.0833 -0.5617,-0.1242 -1.0372,-0.1242l-1.2742 0 0 4.6299z"/>
  <path id="1" class="fil0" d="M42.7839 96.2115c0,-0.8128 0.2258,-1.4153 0.6788,-1.8062 0.3767,-0.3246 0.8368,-0.4883 1.38,-0.4883 0.604,0 1.0979,0.1976 1.4803,0.5941 0.3838,0.3951 0.5743,0.9412 0.5743,1.6383 0,0.5659 -0.0846,1.0104 -0.254,1.3335 -0.1693,0.3246 -0.4163,0.5758 -0.7394,0.755 -0.3246,0.1792 -0.6773,0.2681 -1.0612,0.2681 -0.6138,0 -1.1105,-0.1962 -1.4901,-0.5913 -0.3796,-0.3937 -0.5687,-0.961 -0.5687,-1.7032zm0.7648 0c0,0.563 0.1228,0.9836 0.3683,1.263 0.2456,0.2808 0.5546,0.4205 0.9257,0.4205 0.3697,0 0.6774,-0.1411 0.9229,-0.422 0.2441,-0.2808 0.3669,-0.7098 0.3669,-1.2855 0,-0.5433 -0.1228,-0.9553 -0.3697,-1.2347 -0.247,-0.2794 -0.5532,-0.4191 -0.9201,-0.4191 -0.3711,0 -0.6801,0.1397 -0.9257,0.4177 -0.2455,0.278 -0.3683,0.6985 -0.3683,1.2601z"/>
  <path id="12" class="fil0" d="M47.6382 98.5102l0.3598 -1.7611 -0.6985 0 0 -0.6152 0.8227 0 0.3048 -1.5014 -1.1275 0 0 -0.6153 1.2516 0 0.3599 -1.7738 0.6209 0 -0.3599 1.7738 1.3025 0 0.3584 -1.7738 0.6252 0 -0.3599 1.7738 0.7155 0 0 0.6153 -0.8397 0 -0.3104 1.5014 1.1501 0 0 0.6152 -1.2743 0 -0.3584 1.7611 -0.6209 0 0.3556 -1.7611 -1.2982 0 -0.3599 1.7611 -0.6194 0zm1.1035 -2.3763l1.2982 0 0.3104 -1.5014 -1.3024 0 -0.3062 1.5014z"/>
  <polygon class="fil0" points="63.7902,108.124 63.7902,102.064 67.8796,102.064 67.8796,102.779 64.5931,102.779 64.5931,104.656 67.4365,104.656 67.4365,105.371 64.5931,105.371 64.5931,108.124 "/>
  <path id="1" class="fil0" d="M71.691 107.582c-0.2766,0.2343 -0.5419,0.3994 -0.7959,0.4967 -0.2554,0.096 -0.5292,0.144 -0.8213,0.144 -0.4826,0 -0.8523,-0.1171 -1.1119,-0.3528 -0.2583,-0.2357 -0.3881,-0.5376 -0.3881,-0.9031 0,-0.2159 0.048,-0.4121 0.1468,-0.5899 0.0973,-0.1778 0.2257,-0.3203 0.3838,-0.4275 0.1594,-0.1073 0.3372,-0.1891 0.5362,-0.2442 0.1454,-0.0381 0.3655,-0.0762 0.6604,-0.1114 0.6012,-0.072 1.0442,-0.1567 1.3279,-0.2569 0.0028,-0.1016 0.0042,-0.1665 0.0042,-0.1933 0,-0.3034 -0.0705,-0.5179 -0.2117,-0.6406 -0.189,-0.1694 -0.4727,-0.2526 -0.8466,-0.2526 -0.35,0 -0.6082,0.0607 -0.7761,0.1834 -0.1666,0.1228 -0.2893,0.3401 -0.3698,0.652l-0.7267 -0.1002c0.0663,-0.3105 0.175,-0.5631 0.326,-0.7536 0.151,-0.1919 0.3711,-0.34 0.6576,-0.4431 0.2864,-0.103 0.618,-0.1552 0.9962,-0.1552 0.3754,0 0.6788,0.0452 0.913,0.1327 0.2343,0.0889 0.4064,0.1989 0.5179,0.333 0.1101,0.1341 0.1863,0.302 0.2314,0.5066 0.024,0.127 0.0367,0.3556 0.0367,0.6858l0 0.992c0,0.6929 0.0155,1.1303 0.048,1.3123 0.031,0.1835 0.0945,0.3599 0.1877,0.5278l-0.7776 0c-0.0762,-0.1538 -0.127,-0.3344 -0.1481,-0.5419zm-0.0621 -1.6623c-0.271,0.1115 -0.6759,0.2046 -1.215,0.2823 -0.3062,0.0437 -0.5235,0.0931 -0.6491,0.1481 -0.127,0.0551 -0.2258,0.1355 -0.2935,0.2427 -0.0692,0.1059 -0.1044,0.223 -0.1044,0.3528 0,0.199 0.0762,0.3641 0.2257,0.4967 0.1496,0.1313 0.3698,0.1976 0.659,0.1976 0.2865,0 0.5419,-0.0621 0.7649,-0.1877 0.2229,-0.1256 0.388,-0.2977 0.4924,-0.515 0.0805,-0.168 0.12,-0.4163 0.12,-0.7437l0 -0.2738z"/>
  <path id="12" class="fil0" d="M73.4027 108.227l0.3598 -1.7611 -0.6985 0 0 -0.6152 0.8227 0 0.3048 -1.5014 -1.1275 0 0 -0.6153 1.2516 0 0.3599 -1.7738 0.6209 0 -0.3599 1.7738 1.3025 0 0.3584 -1.7738 0.6252 0 -0.3599 1.7738 0.7155 0 0 0.6153 -0.8397 0 -0.3104 1.5014 1.1501 0 0 0.6152 -1.2743 0 -0.3584 1.7611 -0.6209 0 0.3556 -1.7611 -1.2982 0 -0.3599 1.7611 -0.6194 0zm1.1035 -2.3763l1.2982 0 0.3104 -1.5014 -1.3024 0 -0.3062 1.5014z"/>
  <path class="fil0" d="M96.3921 101.318l0.7564 -0.0664c0.0352,0.3034 0.1185,0.5518 0.2497,0.7465 0.1313,0.1948 0.3345,0.3514 0.6096,0.4713 0.2752,0.12 0.5856,0.1792 0.93,0.1792 0.3062,0 0.5757,-0.0451 0.8099,-0.1354 0.2343,-0.0917 0.4093,-0.2159 0.5236,-0.374 0.1143,-0.1594 0.1721,-0.3316 0.1721,-0.5193 0,-0.1905 -0.055,-0.3556 -0.1665,-0.4981 -0.1101,-0.1425 -0.2921,-0.261 -0.5447,-0.357 -0.1637,-0.0635 -0.5221,-0.1623 -1.0795,-0.2963 -0.556,-0.1341 -0.9468,-0.2597 -1.1698,-0.3782 -0.2893,-0.151 -0.5052,-0.3401 -0.6477,-0.5645 -0.1411,-0.2243 -0.2117,-0.4755 -0.2117,-0.7549 0,-0.3048 0.0861,-0.5913 0.2597,-0.8566 0.1735,-0.2667 0.4275,-0.4684 0.7606,-0.6067 0.3344,-0.1369 0.7041,-0.2061 1.1119,-0.2061 0.4502,0 0.8453,0.072 1.1896,0.2174 0.3429,0.1439 0.6068,0.357 0.7916,0.6378 0.1835,0.2808 0.2837,0.5997 0.2978,0.9553l-0.7691 0.0579c-0.0423,-0.3825 -0.182,-0.6731 -0.4205,-0.8679 -0.2385,-0.1961 -0.5898,-0.2935 -1.0555,-0.2935 -0.4854,0 -0.8382,0.0889 -1.0612,0.2667 -0.2215,0.1778 -0.333,0.3923 -0.333,0.6421 0,0.2187 0.079,0.3979 0.2357,0.5376 0.1552,0.1411 0.5574,0.2851 1.2093,0.4318 0.6519,0.1482 1.0992,0.2766 1.342,0.3867 0.3527,0.1636 0.6138,0.3697 0.7817,0.618 0.1679,0.2498 0.2512,0.5377 0.2512,0.8622 0,0.3232 -0.0917,0.6266 -0.2766,0.9116 -0.1848,0.285 -0.4501,0.5066 -0.7959,0.666 -0.3457,0.1581 -0.7351,0.2371 -1.1669,0.2371 -0.549,0 -1.009,-0.079 -1.3787,-0.2399 -0.3711,-0.1594 -0.6618,-0.3993 -0.8735,-0.7211 -0.2102,-0.3203 -0.3217,-0.6844 -0.3316,-1.0893z"/>
  <path id="1" class="fil0" d="M102.22 98.0615l0 -0.8565 0.7451 0 0 0.8565 -0.7451 0zm0 5.2042l0 -4.39 0.7451 0 0 4.39 -0.7451 0z"/>
  <path class="fil0" d="M27.4576 120.383l0 -6.0607 2.6868 0c0.5405,0 0.9511,0.055 1.2319,0.1636 0.2808,0.1087 0.5052,0.3006 0.6745,0.5758 0.168,0.2766 0.2512,0.5814 0.2512,0.9144 0,0.4304 -0.1383,0.7916 -0.4177,1.0865 -0.278,0.295 -0.7084,0.4826 -1.2897,0.5631 0.213,0.1016 0.3739,0.2018 0.484,0.302 0.2342,0.2144 0.4558,0.484 0.666,0.8057l1.0541 1.6496 -1.0089 0 -0.8015 -1.2615c-0.2343,-0.3627 -0.4276,-0.6421 -0.58,-0.834 -0.151,-0.1933 -0.2865,-0.3288 -0.4064,-0.405 -0.12,-0.0776 -0.2413,-0.1312 -0.3655,-0.1623 -0.0917,-0.0183 -0.2399,-0.0282 -0.4473,-0.0282l-0.9299 0 0 2.691 -0.8016 0zm0.8016 -3.3853l1.7243 0c0.3655,0 0.6534,-0.0381 0.8594,-0.1143 0.2075,-0.0762 0.3641,-0.1975 0.4713,-0.364 0.1073,-0.1665 0.1609,-0.3472 0.1609,-0.5433 0,-0.2865 -0.103,-0.5221 -0.3119,-0.707 -0.2074,-0.1848 -0.5362,-0.2766 -0.9863,-0.2766l-1.9177 0 0 2.0052z"/>
  <path id="1" class="fil0" d="M36.4691 118.969l0.769 0.0945c-0.1213,0.4502 -0.3457,0.7987 -0.6731,1.0471 -0.3288,0.2469 -0.7479,0.3711 -1.2573,0.3711 -0.642,0 -1.1515,-0.1976 -1.5268,-0.5927 -0.3768,-0.3951 -0.5645,-0.9497 -0.5645,-1.6637 0,-0.7394 0.1905,-1.3123 0.5701,-1.7201 0.381,-0.4079 0.8735,-0.6125 1.4803,-0.6125 0.587,0 1.0668,0.2004 1.4379,0.5998 0.3726,0.3993 0.5588,0.9623 0.5588,1.6862 0,0.0452 -0.0014,0.1115 -0.0042,0.199l-3.2738 0c0.0268,0.4826 0.1637,0.8523 0.4092,1.1077 0.2456,0.2569 0.5504,0.3853 0.9173,0.3853 0.2723,0 0.5051,-0.072 0.6985,-0.2159 0.1933,-0.1426 0.3457,-0.3712 0.4586,-0.6858zm-2.4427 -1.2037l2.4511 0c-0.0324,-0.3683 -0.127,-0.6463 -0.2808,-0.8298 -0.237,-0.2864 -0.5447,-0.4303 -0.9214,-0.4303 -0.3415,0 -0.6294,0.1143 -0.8622,0.3429 -0.2329,0.2286 -0.3613,0.5348 -0.3867,0.9172z"/>
  <path id="12" class="fil0" d="M38.8595 120.383l-0.69 0 0 -6.0607 0.7436 0 0 2.1618c0.3147,-0.3937 0.7155,-0.5913 1.2023,-0.5913 0.2709,0 0.5263,0.0551 0.7676,0.1637 0.2413,0.1087 0.4389,0.2625 0.5955,0.4586 0.1553,0.1976 0.278,0.4347 0.3655,0.7141 0.0889,0.2779 0.1327,0.5757 0.1327,0.8918 0,0.7535 -0.1863,1.3349 -0.5588,1.7455 -0.3712,0.4107 -0.8185,0.6153 -1.3392,0.6153 -0.5179,0 -0.9243,-0.2159 -1.2192,-0.6491l0 0.5503zm-0.0085 -2.2282c0,0.5264 0.072,0.906 0.2145,1.1402 0.2343,0.3839 0.5518,0.5758 0.9511,0.5758 0.326,0 0.6068,-0.1411 0.8439,-0.4248 0.237,-0.2822 0.3556,-0.7027 0.3556,-1.2629 0,-0.5729 -0.1143,-0.9963 -0.3415,-1.2686 -0.2272,-0.2724 -0.5024,-0.4092 -0.8241,-0.4092 -0.326,0 -0.6068,0.1411 -0.8439,0.4233 -0.237,0.2822 -0.3556,0.6914 -0.3556,1.2262z"/>
  <path class="fil0" d="M104.68 127.125l0 -6.0607 2.0871 0c0.4713,0 0.8311,0.0296 1.0795,0.0874 0.3471,0.0791 0.6435,0.2244 0.889,0.4333 0.3189,0.2709 0.5588,0.6152 0.7168,1.0357 0.1595,0.4205 0.2385,0.9003 0.2385,1.4408 0,0.46 -0.0536,0.8678 -0.1623,1.2234 -0.1072,0.3556 -0.2441,0.6505 -0.4134,0.8834 -0.1679,0.2328 -0.3514,0.4162 -0.5518,0.5489 -0.1989,0.134 -0.4402,0.2356 -0.7225,0.3048 -0.2836,0.0691 -0.6081,0.103 -0.9736,0.103l-2.1873 0zm0.8016 -0.7154l1.294 0c0.3993,0 0.714,-0.0367 0.9412,-0.1115 0.2272,-0.0748 0.4078,-0.1792 0.5433,-0.3147 0.1905,-0.1891 0.3386,-0.4459 0.4445,-0.7662 0.1058,-0.3218 0.1594,-0.7098 0.1594,-1.1684 0,-0.6336 -0.1044,-1.1205 -0.3118,-1.4605 -0.2089,-0.3415 -0.4615,-0.5687 -0.7592,-0.6844 -0.2145,-0.0833 -0.5617,-0.1242 -1.0372,-0.1242l-1.2742 0 0 4.6299z"/>
  <path id="1" class="fil0" d="M110.422 124.929c0,-0.8128 0.2258,-1.4153 0.6788,-1.8062 0.3767,-0.3246 0.8368,-0.4883 1.38,-0.4883 0.604,0 1.0979,0.1976 1.4803,0.5941 0.3838,0.3951 0.5743,0.9412 0.5743,1.6383 0,0.5659 -0.0846,1.0104 -0.254,1.3335 -0.1693,0.3246 -0.4163,0.5758 -0.7394,0.755 -0.3246,0.1792 -0.6773,0.2681 -1.0612,0.2681 -0.6138,0 -1.1105,-0.1962 -1.4901,-0.5913 -0.3796,-0.3937 -0.5687,-0.961 -0.5687,-1.7032zm0.7648 0c0,0.563 0.1228,0.9836 0.3683,1.263 0.2456,0.2808 0.5546,0.4205 0.9257,0.4205 0.3697,0 0.6774,-0.1411 0.9229,-0.422 0.2441,-0.2808 0.3669,-0.7098 0.3669,-1.2855 0,-0.5433 -0.1228,-0.9553 -0.3697,-1.2347 -0.247,-0.2794 -0.5532,-0.4191 -0.9201,-0.4191 -0.3711,0 -0.6801,0.1397 -0.9257,0.4177 -0.2455,0.278 -0.3683,0.6985 -0.3683,1.2601z"/>
  <path id="12" class="fil0" d="M116.095 127.125l-0.69 0 0 -6.0607 0.7436 0 0 2.1618c0.3147,-0.3937 0.7155,-0.5913 1.2023,-0.5913 0.2709,0 0.5263,0.0551 0.7676,0.1637 0.2413,0.1087 0.4389,0.2625 0.5955,0.4586 0.1553,0.1976 0.278,0.4347 0.3655,0.7141 0.0889,0.2779 0.1327,0.5757 0.1327,0.8918 0,0.7535 -0.1863,1.3349 -0.5588,1.7455 -0.3712,0.4107 -0.8185,0.6153 -1.3392,0.6153 -0.5179,0 -0.9243,-0.2159 -1.2192,-0.6491l0 0.5503zm-0.0085 -2.2282c0,0.5264 0.072,0.906 0.2145,1.1402 0.2343,0.3839 0.5518,0.5758 0.9511,0.5758 0.326,0 0.6068,-0.1411 0.8439,-0.4248 0.237,-0.2822 0.3556,-0.7027 0.3556,-1.2629 0,-0.5729 -0.1143,-0.9963 -0.3415,-1.2686 -0.2272,-0.2724 -0.5024,-0.4092 -0.8241,-0.4092 -0.326,0 -0.6068,0.1411 -0.8439,0.4233 -0.237,0.2822 -0.3556,0.6914 -0.3556,1.2262z"/>
  <polygon class="fil0" points="68.2187,21.7793 68.2187,15.7186 68.9623,15.7186 68.9623,21.7793 "/>
  <path id="1" class="fil0" d="M72.9812 21.2374c-0.2766,0.2343 -0.5419,0.3994 -0.7959,0.4967 -0.2554,0.096 -0.5292,0.144 -0.8213,0.144 -0.4826,0 -0.8523,-0.1171 -1.1119,-0.3528 -0.2583,-0.2357 -0.3881,-0.5376 -0.3881,-0.9031 0,-0.2159 0.048,-0.4121 0.1468,-0.5899 0.0973,-0.1778 0.2257,-0.3203 0.3838,-0.4275 0.1594,-0.1073 0.3372,-0.1891 0.5362,-0.2442 0.1454,-0.0381 0.3655,-0.0762 0.6604,-0.1114 0.6012,-0.072 1.0442,-0.1567 1.3279,-0.2569 0.0028,-0.1016 0.0042,-0.1665 0.0042,-0.1933 0,-0.3034 -0.0705,-0.5179 -0.2117,-0.6406 -0.189,-0.1694 -0.4727,-0.2526 -0.8466,-0.2526 -0.35,0 -0.6082,0.0607 -0.7761,0.1834 -0.1666,0.1228 -0.2893,0.3401 -0.3698,0.652l-0.7267 -0.1002c0.0663,-0.3105 0.175,-0.5631 0.326,-0.7536 0.151,-0.1919 0.3711,-0.34 0.6576,-0.4431 0.2864,-0.103 0.618,-0.1552 0.9962,-0.1552 0.3754,0 0.6788,0.0452 0.913,0.1327 0.2343,0.0889 0.4064,0.1989 0.5179,0.333 0.1101,0.1341 0.1863,0.302 0.2314,0.5066 0.024,0.127 0.0367,0.3556 0.0367,0.6858l0 0.992c0,0.6929 0.0155,1.1303 0.048,1.3123 0.031,0.1835 0.0945,0.3599 0.1877,0.5278l-0.7776 0c-0.0762,-0.1538 -0.127,-0.3344 -0.1481,-0.5419zm-0.0621 -1.6623c-0.271,0.1115 -0.6759,0.2046 -1.215,0.2823 -0.3062,0.0437 -0.5235,0.0931 -0.6491,0.1481 -0.127,0.0551 -0.2258,0.1355 -0.2935,0.2427 -0.0692,0.1059 -0.1044,0.223 -0.1044,0.3528 0,0.199 0.0762,0.3641 0.2257,0.4967 0.1496,0.1313 0.3698,0.1976 0.659,0.1976 0.2865,0 0.5419,-0.0621 0.7649,-0.1877 0.2229,-0.1256 0.388,-0.2977 0.4924,-0.515 0.0805,-0.168 0.12,-0.4163 0.12,-0.7437l0 -0.2738z"/>
  <path class="fil0" d="M92.6282 27.7969l0 -4.39 0.6646 0 0 0.6153c0.1383,-0.2145 0.3218,-0.3881 0.5504,-0.5179 0.2286,-0.1313 0.4896,-0.1976 0.7817,-0.1976 0.3246,0 0.5913,0.0678 0.7987,0.2032 0.2089,0.1355 0.3556,0.3232 0.4403,0.5659 0.3485,-0.5123 0.8001,-0.7691 1.3561,-0.7691 0.436,0 0.7704,0.1214 1.0047,0.3627 0.2342,0.2413 0.3514,0.6124 0.3514,1.1134l0 3.0141 -0.7395 0 0 -2.7658c0,-0.2977 -0.024,-0.5122 -0.0719,-0.6435 -0.0494,-0.1298 -0.1369,-0.2356 -0.2625,-0.316 -0.127,-0.0791 -0.2766,-0.12 -0.4473,-0.12 -0.3091,0 -0.5645,0.103 -0.7691,0.309 -0.2032,0.2047 -0.3062,0.5334 -0.3062,0.985l0 2.5513 -0.7437 0 0 -2.8519c0,-0.3316 -0.0606,-0.5799 -0.182,-0.745 -0.1213,-0.1651 -0.3189,-0.2484 -0.5955,-0.2484 -0.2088,0 -0.4021,0.055 -0.5799,0.1665 -0.1778,0.1101 -0.3077,0.271 -0.3867,0.4826 -0.0804,0.2131 -0.1199,0.5193 -0.1199,0.9187l0 2.2775 -0.7437 0z"/>
  <path id="1" class="fil0" d="M99.6838 22.5927l0 -0.8565 0.7451 0 0 0.8565 -0.7451 0zm0 5.2042l0 -4.39 0.7451 0 0 4.39 -0.7451 0z"/>
  <path class="fil0" d="M44.3225 25.4041l0 -4.39 0.6689 0 0 0.6647c0.1707,-0.3105 0.3288,-0.5165 0.4741,-0.6153 0.144,-0.0988 0.3034,-0.1496 0.477,-0.1496 0.2512,0 0.5052,0.0805 0.7648,0.2399l-0.2568 0.6915c-0.1806,-0.1087 -0.3627,-0.1623 -0.5447,-0.1623 -0.1637,0 -0.309,0.0494 -0.4388,0.1467 -0.1299,0.0988 -0.2216,0.2343 -0.2766,0.4079 -0.0833,0.2638 -0.1242,0.5531 -0.1242,0.8678l0 2.2987 -0.7437 0z"/>
  <path id="1" class="fil0" d="M50.1547 23.9902l0.769 0.0945c-0.1213,0.4502 -0.3457,0.7987 -0.6731,1.0471 -0.3288,0.2469 -0.7479,0.3711 -1.2573,0.3711 -0.642,0 -1.1515,-0.1976 -1.5268,-0.5927 -0.3768,-0.3951 -0.5645,-0.9497 -0.5645,-1.6637 0,-0.7394 0.1905,-1.3123 0.5701,-1.7201 0.381,-0.4079 0.8735,-0.6125 1.4803,-0.6125 0.587,0 1.0668,0.2004 1.4379,0.5998 0.3726,0.3993 0.5588,0.9623 0.5588,1.6862 0,0.0452 -0.0014,0.1115 -0.0042,0.199l-3.2738 0c0.0268,0.4826 0.1637,0.8523 0.4092,1.1077 0.2456,0.2569 0.5504,0.3853 0.9173,0.3853 0.2723,0 0.5051,-0.072 0.6985,-0.2159 0.1933,-0.1426 0.3457,-0.3712 0.4586,-0.6858zm-2.4427 -1.2037l2.4511 0c-0.0324,-0.3683 -0.127,-0.6463 -0.2808,-0.8298 -0.237,-0.2864 -0.5447,-0.4303 -0.9214,-0.4303 -0.3415,0 -0.6294,0.1143 -0.8622,0.3429 -0.2329,0.2286 -0.3613,0.5348 -0.3867,0.9172z"/>
  <path class="fil0" d="M25.2446 39.3184l0.7351 -0.1157c0.041,0.2949 0.1567,0.5207 0.3458,0.6787 0.1877,0.1566 0.4515,0.2357 0.7916,0.2357 0.3415,0 0.5955,-0.0706 0.7606,-0.2089 0.1651,-0.1397 0.2484,-0.3034 0.2484,-0.4896 0,-0.1694 -0.0734,-0.3006 -0.2202,-0.398 -0.1016,-0.0663 -0.3556,-0.1496 -0.7606,-0.2512 -0.5447,-0.1382 -0.9243,-0.2568 -1.1345,-0.3584 -0.2103,-0.1002 -0.3711,-0.2399 -0.4798,-0.4177 -0.1086,-0.1778 -0.1637,-0.3739 -0.1637,-0.5884 0,-0.1961 0.0452,-0.3768 0.1355,-0.5433 0.0889,-0.1679 0.2117,-0.3062 0.3655,-0.4163 0.1157,-0.0846 0.2737,-0.158 0.4727,-0.2173 0.2004,-0.0592 0.4149,-0.0889 0.6435,-0.0889 0.3443,0 0.6463,0.0508 0.9073,0.1496 0.2611,0.0988 0.453,0.2328 0.5772,0.4022 0.1241,0.1707 0.2088,0.3965 0.2554,0.6801l-0.7268 0.1002c-0.0338,-0.2258 -0.1298,-0.4021 -0.2878,-0.5291 -0.1581,-0.127 -0.3824,-0.1905 -0.6717,-0.1905 -0.3415,0 -0.5856,0.0564 -0.731,0.1693 -0.1467,0.1129 -0.2201,0.2455 -0.2201,0.3965 0,0.0974 0.031,0.1835 0.0917,0.2611 0.0607,0.0804 0.1552,0.1453 0.2851,0.1989 0.0748,0.0268 0.2935,0.0903 0.6575,0.1891 0.5264,0.1411 0.8933,0.2554 1.1007,0.3457 0.2089,0.0889 0.3725,0.2202 0.4911,0.3909 0.1185,0.1708 0.1778,0.3824 0.1778,0.6364 0,0.2484 -0.0734,0.4812 -0.2173,0.7014 -0.1454,0.2187 -0.3542,0.388 -0.6266,0.508 -0.2723,0.1199 -0.5813,0.1792 -0.9257,0.1792 -0.5715,0 -1.0061,-0.1186 -1.3052,-0.3556 -0.2992,-0.2371 -0.4897,-0.5885 -0.5715,-1.0541z"/>
  <path id="1" class="fil0" d="M29.4977 38.4336c0,-0.8128 0.2258,-1.4153 0.6788,-1.8062 0.3767,-0.3246 0.8368,-0.4883 1.38,-0.4883 0.604,0 1.0979,0.1976 1.4803,0.5941 0.3838,0.3951 0.5743,0.9412 0.5743,1.6383 0,0.5659 -0.0846,1.0104 -0.254,1.3335 -0.1693,0.3246 -0.4163,0.5758 -0.7394,0.755 -0.3246,0.1792 -0.6773,0.2681 -1.0612,0.2681 -0.6138,0 -1.1105,-0.1962 -1.4901,-0.5913 -0.3796,-0.3937 -0.5687,-0.961 -0.5687,-1.7032zm0.7648 0c0,0.563 0.1228,0.9836 0.3683,1.263 0.2456,0.2808 0.5546,0.4205 0.9257,0.4205 0.3697,0 0.6774,-0.1411 0.9229,-0.422 0.2441,-0.2808 0.3669,-0.7098 0.3669,-1.2855 0,-0.5433 -0.1228,-0.9553 -0.3697,-1.2347 -0.247,-0.2794 -0.5532,-0.4191 -0.9201,-0.4191 -0.3711,0 -0.6801,0.1397 -0.9257,0.4177 -0.2455,0.278 -0.3683,0.6985 -0.3683,1.2601z"/>
  <polygon id="12" class="fil0" points="34.4677,40.6293 34.4677,34.5686 35.2113,34.5686 35.2113,40.6293 "/>
  <path class="fil0" d="M21.2547 64.6721l0 -0.5546c-0.278,0.4361 -0.6872,0.6534 -1.2276,0.6534 -0.35,0 -0.6717,-0.096 -0.9652,-0.2893 -0.2936,-0.1919 -0.5207,-0.4614 -0.683,-0.8086 -0.1609,-0.3457 -0.2413,-0.7422 -0.2413,-1.1924 0,-0.4374 0.0734,-0.8353 0.2187,-1.1924 0.1468,-0.357 0.3655,-0.6307 0.6576,-0.8198 0.2921,-0.1905 0.6195,-0.2865 0.9807,-0.2865 0.2639,0 0.4995,0.0565 0.7056,0.1679 0.2074,0.1115 0.3753,0.2569 0.5051,0.4361l0 -2.1745 0.7395 0 0 6.0607 -0.6901 0zm-2.3523 -2.1915c0,0.5631 0.1185,0.9836 0.3556,1.2616 0.2371,0.278 0.5165,0.4177 0.8396,0.4177 0.3246,0 0.6012,-0.1341 0.8283,-0.3994 0.2272,-0.2653 0.3415,-0.6717 0.3415,-1.2178 0,-0.6011 -0.1157,-1.0414 -0.3471,-1.3222 -0.2314,-0.2822 -0.5165,-0.4219 -0.8565,-0.4219 -0.3302,0 -0.6068,0.1355 -0.8284,0.405 -0.2215,0.2695 -0.333,0.6957 -0.333,1.277z"/>
  <path id="1" class="fil0" d="M22.838 62.4764c0,-0.8128 0.2258,-1.4153 0.6788,-1.8062 0.3767,-0.3246 0.8368,-0.4883 1.38,-0.4883 0.604,0 1.0979,0.1976 1.4803,0.5941 0.3838,0.3951 0.5743,0.9412 0.5743,1.6383 0,0.5659 -0.0846,1.0104 -0.254,1.3335 -0.1693,0.3246 -0.4163,0.5758 -0.7394,0.755 -0.3246,0.1792 -0.6773,0.2681 -1.0612,0.2681 -0.6138,0 -1.1105,-0.1962 -1.4901,-0.5913 -0.3796,-0.3937 -0.5687,-0.961 -0.5687,-1.7032zm0.7648 0c0,0.563 0.1228,0.9836 0.3683,1.263 0.2456,0.2808 0.5546,0.4205 0.9257,0.4205 0.3697,0 0.6774,-0.1411 0.9229,-0.422 0.2441,-0.2808 0.3669,-0.7098 0.3669,-1.2855 0,-0.5433 -0.1228,-0.9553 -0.3697,-1.2347 -0.247,-0.2794 -0.5532,-0.4191 -0.9201,-0.4191 -0.3711,0 -0.6801,0.1397 -0.9257,0.4177 -0.2455,0.278 -0.3683,0.6985 -0.3683,1.2601z"/>
  <path class="fil0" d="M107.348 63.1021l0 -3.8114 -0.6562 0 0 -0.5786 0.6562 0 0 -0.4671c0,-0.2949 0.0268,-0.515 0.079,-0.6575 0.072,-0.1934 0.1976,-0.35 0.3782,-0.4699 0.1806,-0.12 0.4332,-0.1793 0.7592,-0.1793 0.2088,0 0.4402,0.024 0.6942,0.0748l-0.1114 0.6491c-0.1538,-0.0282 -0.3006,-0.0423 -0.4389,-0.0423 -0.2258,0 -0.3852,0.048 -0.4784,0.1454 -0.0945,0.0959 -0.1411,0.2765 -0.1411,0.5418l0 0.405 0.8552 0 0 0.5786 -0.8552 0 0 3.8114 -0.7408 0z"/>
  <path id="1" class="fil0" d="M112.388 62.5602c-0.2766,0.2343 -0.5419,0.3994 -0.7959,0.4967 -0.2554,0.096 -0.5292,0.144 -0.8213,0.144 -0.4826,0 -0.8523,-0.1171 -1.1119,-0.3528 -0.2583,-0.2357 -0.3881,-0.5376 -0.3881,-0.9031 0,-0.2159 0.048,-0.4121 0.1468,-0.5899 0.0973,-0.1778 0.2257,-0.3203 0.3838,-0.4275 0.1594,-0.1073 0.3372,-0.1891 0.5362,-0.2442 0.1454,-0.0381 0.3655,-0.0762 0.6604,-0.1114 0.6012,-0.072 1.0442,-0.1567 1.3279,-0.2569 0.0028,-0.1016 0.0042,-0.1665 0.0042,-0.1933 0,-0.3034 -0.0705,-0.5179 -0.2117,-0.6406 -0.189,-0.1694 -0.4727,-0.2526 -0.8466,-0.2526 -0.35,0 -0.6082,0.0607 -0.7761,0.1834 -0.1666,0.1228 -0.2893,0.3401 -0.3698,0.652l-0.7267 -0.1002c0.0663,-0.3105 0.175,-0.5631 0.326,-0.7536 0.151,-0.1919 0.3711,-0.34 0.6576,-0.4431 0.2864,-0.103 0.618,-0.1552 0.9962,-0.1552 0.3754,0 0.6788,0.0452 0.913,0.1327 0.2343,0.0889 0.4064,0.1989 0.5179,0.333 0.1101,0.1341 0.1863,0.302 0.2314,0.5066 0.024,0.127 0.0367,0.3556 0.0367,0.6858l0 0.992c0,0.6929 0.0155,1.1303 0.048,1.3123 0.031,0.1835 0.0945,0.3599 0.1877,0.5278l-0.7776 0c-0.0762,-0.1538 -0.127,-0.3344 -0.1481,-0.5419zm-0.0621 -1.6623c-0.271,0.1115 -0.6759,0.2046 -1.215,0.2823 -0.3062,0.0437 -0.5235,0.0931 -0.6491,0.1481 -0.127,0.0551 -0.2258,0.1355 -0.2935,0.2427 -0.0692,0.1059 -0.1044,0.223 -0.1044,0.3528 0,0.199 0.0762,0.3641 0.2257,0.4967 0.1496,0.1313 0.3698,0.1976 0.659,0.1976 0.2865,0 0.5419,-0.0621 0.7649,-0.1877 0.2229,-0.1256 0.388,-0.2977 0.4924,-0.515 0.0805,-0.168 0.12,-0.4163 0.12,-0.7437l0 -0.2738z"/>
  <path id="12" class="fil0" d="M114.1 63.2051l0.3598 -1.7611 -0.6985 0 0 -0.6152 0.8227 0 0.3048 -1.5014 -1.1275 0 0 -0.6153 1.2516 0 0.3599 -1.7738 0.6209 0 -0.3599 1.7738 1.3025 0 0.3584 -1.7738 0.6252 0 -0.3599 1.7738 0.7155 0 0 0.6153 -0.8397 0 -0.3104 1.5014 1.1501 0 0 0.6152 -1.2743 0 -0.3584 1.7611 -0.6209 0 0.3556 -1.7611 -1.2982 0 -0.3599 1.7611 -0.6194 0zm1.1035 -2.3763l1.2982 0 0.3104 -1.5014 -1.3024 0 -0.3062 1.5014z"/>
  <path class="fil0" d="M101.715 80.5927l0 -0.5546c-0.278,0.4361 -0.6872,0.6534 -1.2276,0.6534 -0.35,0 -0.6717,-0.096 -0.9652,-0.2893 -0.2936,-0.1919 -0.5207,-0.4614 -0.683,-0.8086 -0.1609,-0.3457 -0.2413,-0.7422 -0.2413,-1.1924 0,-0.4374 0.0734,-0.8353 0.2187,-1.1924 0.1468,-0.357 0.3655,-0.6307 0.6576,-0.8198 0.2921,-0.1905 0.6195,-0.2865 0.9807,-0.2865 0.2639,0 0.4995,0.0565 0.7056,0.1679 0.2074,0.1115 0.3753,0.2569 0.5051,0.4361l0 -2.1745 0.7395 0 0 6.0607 -0.6901 0zm-2.3523 -2.1915c0,0.5631 0.1185,0.9836 0.3556,1.2616 0.2371,0.278 0.5165,0.4177 0.8396,0.4177 0.3246,0 0.6012,-0.1341 0.8283,-0.3994 0.2272,-0.2653 0.3415,-0.6717 0.3415,-1.2178 0,-0.6011 -0.1157,-1.0414 -0.3471,-1.3222 -0.2314,-0.2822 -0.5165,-0.4219 -0.8565,-0.4219 -0.3302,0 -0.6068,0.1355 -0.8284,0.405 -0.2215,0.2695 -0.333,0.6957 -0.333,1.277z"/>
  <path id="1" class="fil0" d="M103.298 78.397c0,-0.8128 0.2258,-1.4153 0.6788,-1.8062 0.3767,-0.3246 0.8368,-0.4883 1.38,-0.4883 0.604,0 1.0979,0.1976 1.4803,0.5941 0.3838,0.3951 0.5743,0.9412 0.5743,1.6383 0,0.5659 -0.0846,1.0104 -0.254,1.3335 -0.1693,0.3246 -0.4163,0.5758 -0.7394,0.755 -0.3246,0.1792 -0.6773,0.2681 -1.0612,0.2681 -0.6138,0 -1.1105,-0.1962 -1.4901,-0.5913 -0.3796,-0.3937 -0.5687,-0.961 -0.5687,-1.7032zm0.7648 0c0,0.563 0.1228,0.9836 0.3683,1.263 0.2456,0.2808 0.5546,0.4205 0.9257,0.4205 0.3697,0 0.6774,-0.1411 0.9229,-0.422 0.2441,-0.2808 0.3669,-0.7098 0.3669,-1.2855 0,-0.5433 -0.1228,-0.9553 -0.3697,-1.2347 -0.247,-0.2794 -0.5532,-0.4191 -0.9201,-0.4191 -0.3711,0 -0.6801,0.1397 -0.9257,0.4177 -0.2455,0.278 -0.3683,0.6985 -0.3683,1.2601z"/>
  <path id="12" class="fil0" d="M108.153 80.6957l0.3598 -1.7611 -0.6985 0 0 -0.6152 0.8227 0 0.3048 -1.5014 -1.1275 0 0 -0.6153 1.2516 0 0.3599 -1.7738 0.6209 0 -0.3599 1.7738 1.3025 0 0.3584 -1.7738 0.6252 0 -0.3599 1.7738 0.7155 0 0 0.6153 -0.8397 0 -0.3104 1.5014 1.1501 0 0 0.6152 -1.2743 0 -0.3584 1.7611 -0.6209 0 0.3556 -1.7611 -1.2982 0 -0.3599 1.7611 -0.6194 0zm1.1035 -2.3763l1.2982 0 0.3104 -1.5014 -1.3024 0 -0.3062 1.5014z"/>
  <path class="fil0" d="M83.6153 92.2378l0.7351 -0.1157c0.041,0.2949 0.1567,0.5207 0.3458,0.6787 0.1877,0.1566 0.4515,0.2357 0.7916,0.2357 0.3415,0 0.5955,-0.0706 0.7606,-0.2089 0.1651,-0.1397 0.2484,-0.3034 0.2484,-0.4896 0,-0.1694 -0.0734,-0.3006 -0.2202,-0.398 -0.1016,-0.0663 -0.3556,-0.1496 -0.7606,-0.2512 -0.5447,-0.1382 -0.9243,-0.2568 -1.1345,-0.3584 -0.2103,-0.1002 -0.3711,-0.2399 -0.4798,-0.4177 -0.1086,-0.1778 -0.1637,-0.3739 -0.1637,-0.5884 0,-0.1961 0.0452,-0.3768 0.1355,-0.5433 0.0889,-0.1679 0.2117,-0.3062 0.3655,-0.4163 0.1157,-0.0846 0.2737,-0.158 0.4727,-0.2173 0.2004,-0.0592 0.4149,-0.0889 0.6435,-0.0889 0.3443,0 0.6463,0.0508 0.9073,0.1496 0.2611,0.0988 0.453,0.2328 0.5772,0.4022 0.1241,0.1707 0.2088,0.3965 0.2554,0.6801l-0.7268 0.1002c-0.0338,-0.2258 -0.1298,-0.4021 -0.2878,-0.5291 -0.1581,-0.127 -0.3824,-0.1905 -0.6717,-0.1905 -0.3415,0 -0.5856,0.0564 -0.731,0.1693 -0.1467,0.1129 -0.2201,0.2455 -0.2201,0.3965 0,0.0974 0.031,0.1835 0.0917,0.2611 0.0607,0.0804 0.1552,0.1453 0.2851,0.1989 0.0748,0.0268 0.2935,0.0903 0.6575,0.1891 0.5264,0.1411 0.8933,0.2554 1.1007,0.3457 0.2089,0.0889 0.3725,0.2202 0.4911,0.3909 0.1185,0.1708 0.1778,0.3824 0.1778,0.6364 0,0.2484 -0.0734,0.4812 -0.2173,0.7014 -0.1454,0.2187 -0.3542,0.388 -0.6266,0.508 -0.2723,0.1199 -0.5813,0.1792 -0.9257,0.1792 -0.5715,0 -1.0061,-0.1186 -1.3052,-0.3556 -0.2992,-0.2371 -0.4897,-0.5885 -0.5715,-1.0541z"/>
  <path id="1" class="fil0" d="M87.8684 91.353c0,-0.8128 0.2258,-1.4153 0.6788,-1.8062 0.3767,-0.3246 0.8368,-0.4883 1.38,-0.4883 0.604,0 1.0979,0.1976 1.4803,0.5941 0.3838,0.3951 0.5743,0.9412 0.5743,1.6383 0,0.5659 -0.0846,1.0104 -0.254,1.3335 -0.1693,0.3246 -0.4163,0.5758 -0.7394,0.755 -0.3246,0.1792 -0.6773,0.2681 -1.0612,0.2681 -0.6138,0 -1.1105,-0.1962 -1.4901,-0.5913 -0.3796,-0.3937 -0.5687,-0.961 -0.5687,-1.7032zm0.7648 0c0,0.563 0.1228,0.9836 0.3683,1.263 0.2456,0.2808 0.5546,0.4205 0.9257,0.4205 0.3697,0 0.6774,-0.1411 0.9229,-0.422 0.2441,-0.2808 0.3669,-0.7098 0.3669,-1.2855 0,-0.5433 -0.1228,-0.9553 -0.3697,-1.2347 -0.247,-0.2794 -0.5532,-0.4191 -0.9201,-0.4191 -0.3711,0 -0.6801,0.1397 -0.9257,0.4177 -0.2455,0.278 -0.3683,0.6985 -0.3683,1.2601z"/>
  <polygon id="12" class="fil0" points="92.8384,93.5487 92.8384,87.488 93.582,87.488 93.582,93.5487 "/>
  <path id="123" class="fil0" d="M94.6037 93.6517l0.3598 -1.7611 -0.6985 0 0 -0.6152 0.8227 0 0.3048 -1.5014 -1.1275 0 0 -0.6153 1.2516 0 0.3599 -1.7738 0.6209 0 -0.3599 1.7738 1.3025 0 0.3584 -1.7738 0.6252 0 -0.3599 1.7738 0.7155 0 0 0.6153 -0.8397 0 -0.3104 1.5014 1.1501 0 0 0.6152 -1.2743 0 -0.3584 1.7611 -0.6209 0 0.3556 -1.7611 -1.2982 0 -0.3599 1.7611 -0.6194 0zm1.1035 -2.3763l1.2982 0 0.3104 -1.5014 -1.3024 0 -0.3062 1.5014z"/>
  <path class="fil0" d="M64.8224 96.1399l0 -4.39 0.6689 0 0 0.6647c0.1707,-0.3105 0.3288,-0.5165 0.4741,-0.6153 0.144,-0.0988 0.3034,-0.1496 0.477,-0.1496 0.2512,0 0.5052,0.0805 0.7648,0.2399l-0.2568 0.6915c-0.1806,-0.1087 -0.3627,-0.1623 -0.5447,-0.1623 -0.1637,0 -0.309,0.0494 -0.4388,0.1467 -0.1299,0.0988 -0.2216,0.2343 -0.2766,0.4079 -0.0833,0.2638 -0.1242,0.5531 -0.1242,0.8678l0 2.2987 -0.7437 0z"/>
  <path id="1" class="fil0" d="M70.6546 94.726l0.769 0.0945c-0.1213,0.4502 -0.3457,0.7987 -0.6731,1.0471 -0.3288,0.2469 -0.7479,0.3711 -1.2573,0.3711 -0.642,0 -1.1515,-0.1976 -1.5268,-0.5927 -0.3768,-0.3951 -0.5645,-0.9497 -0.5645,-1.6637 0,-0.7394 0.1905,-1.3123 0.5701,-1.7201 0.381,-0.4079 0.8735,-0.6125 1.4803,-0.6125 0.587,0 1.0668,0.2004 1.4379,0.5998 0.3726,0.3993 0.5588,0.9623 0.5588,1.6862 0,0.0452 -0.0014,0.1115 -0.0042,0.199l-3.2738 0c0.0268,0.4826 0.1637,0.8523 0.4092,1.1077 0.2456,0.2569 0.5504,0.3853 0.9173,0.3853 0.2723,0 0.5051,-0.072 0.6985,-0.2159 0.1933,-0.1426 0.3457,-0.3712 0.4586,-0.6858zm-2.4427 -1.2037l2.4511 0c-0.0324,-0.3683 -0.127,-0.6463 -0.2808,-0.8298 -0.237,-0.2864 -0.5447,-0.4303 -0.9214,-0.4303 -0.3415,0 -0.6294,0.1143 -0.8622,0.3429 -0.2329,0.2286 -0.3613,0.5348 -0.3867,0.9172z"/>
  <path id="12" class="fil0" d="M72.2266 96.2429l0.3598 -1.7611 -0.6985 0 0 -0.6152 0.8227 0 0.3048 -1.5014 -1.1275 0 0 -0.6153 1.2516 0 0.3599 -1.7738 0.6209 0 -0.3599 1.7738 1.3025 0 0.3584 -1.7738 0.6252 0 -0.3599 1.7738 0.7155 0 0 0.6153 -0.8397 0 -0.3104 1.5014 1.1501 0 0 0.6152 -1.2743 0 -0.3584 1.7611 -0.6209 0 0.3556 -1.7611 -1.2982 0 -0.3599 1.7611 -0.6194 0zm1.1035 -2.3763l1.2982 0 0.3104 -1.5014 -1.3024 0 -0.3062 1.5014z"/>
  <polygon class="fil0" points="48.4404,86.7468 48.4404,80.6861 49.184,80.6861 49.184,86.7468 "/>
  <path id="1" class="fil0" d="M53.2029 86.2049c-0.2766,0.2343 -0.5419,0.3994 -0.7959,0.4967 -0.2554,0.096 -0.5292,0.144 -0.8213,0.144 -0.4826,0 -0.8523,-0.1171 -1.1119,-0.3528 -0.2583,-0.2357 -0.3881,-0.5376 -0.3881,-0.9031 0,-0.2159 0.048,-0.4121 0.1468,-0.5899 0.0973,-0.1778 0.2257,-0.3203 0.3838,-0.4275 0.1594,-0.1073 0.3372,-0.1891 0.5362,-0.2442 0.1454,-0.0381 0.3655,-0.0762 0.6604,-0.1114 0.6012,-0.072 1.0442,-0.1567 1.3279,-0.2569 0.0028,-0.1016 0.0042,-0.1665 0.0042,-0.1933 0,-0.3034 -0.0705,-0.5179 -0.2117,-0.6406 -0.189,-0.1694 -0.4727,-0.2526 -0.8466,-0.2526 -0.35,0 -0.6082,0.0607 -0.7761,0.1834 -0.1666,0.1228 -0.2893,0.3401 -0.3698,0.652l-0.7267 -0.1002c0.0663,-0.3105 0.175,-0.5631 0.326,-0.7536 0.151,-0.1919 0.3711,-0.34 0.6576,-0.4431 0.2864,-0.103 0.618,-0.1552 0.9962,-0.1552 0.3754,0 0.6788,0.0452 0.913,0.1327 0.2343,0.0889 0.4064,0.1989 0.5179,0.333 0.1101,0.1341 0.1863,0.302 0.2314,0.5066 0.024,0.127 0.0367,0.3556 0.0367,0.6858l0 0.992c0,0.6929 0.0155,1.1303 0.048,1.3123 0.031,0.1835 0.0945,0.3599 0.1877,0.5278l-0.7776 0c-0.0762,-0.1538 -0.127,-0.3344 -0.1481,-0.5419zm-0.0621 -1.6623c-0.271,0.1115 -0.6759,0.2046 -1.215,0.2823 -0.3062,0.0437 -0.5235,0.0931 -0.6491,0.1481 -0.127,0.0551 -0.2258,0.1355 -0.2935,0.2427 -0.0692,0.1059 -0.1044,0.223 -0.1044,0.3528 0,0.199 0.0762,0.3641 0.2257,0.4967 0.1496,0.1313 0.3698,0.1976 0.659,0.1976 0.2865,0 0.5419,-0.0621 0.7649,-0.1877 0.2229,-0.1256 0.388,-0.2977 0.4924,-0.515 0.0805,-0.168 0.12,-0.4163 0.12,-0.7437l0 -0.2738z"/>
  <path id="12" class="fil0" d="M54.9146 86.8498l0.3598 -1.7611 -0.6985 0 0 -0.6152 0.8227 0 0.3048 -1.5014 -1.1275 0 0 -0.6153 1.2516 0 0.3599 -1.7738 0.6209 0 -0.3599 1.7738 1.3025 0 0.3584 -1.7738 0.6252 0 -0.3599 1.7738 0.7155 0 0 0.6153 -0.8397 0 -0.3104 1.5014 1.1501 0 0 0.6152 -1.2743 0 -0.3584 1.7611 -0.6209 0 0.3556 -1.7611 -1.2982 0 -0.3599 1.7611 -0.6194 0zm1.1035 -2.3763l1.2982 0 0.3104 -1.5014 -1.3024 0 -0.3062 1.5014z"/>
  <path class="fil0" d="M22.803 85.6592l0 -3.8114 -0.6562 0 0 -0.5786 0.6562 0 0 -0.4671c0,-0.2949 0.0268,-0.515 0.079,-0.6575 0.072,-0.1934 0.1976,-0.35 0.3782,-0.4699 0.1806,-0.12 0.4332,-0.1793 0.7592,-0.1793 0.2088,0 0.4402,0.024 0.6942,0.0748l-0.1114 0.6491c-0.1538,-0.0282 -0.3006,-0.0423 -0.4389,-0.0423 -0.2258,0 -0.3852,0.048 -0.4784,0.1454 -0.0945,0.0959 -0.1411,0.2765 -0.1411,0.5418l0 0.405 0.8552 0 0 0.5786 -0.8552 0 0 3.8114 -0.7408 0z"/>
  <path id="1" class="fil0" d="M27.8435 85.1173c-0.2766,0.2343 -0.5419,0.3994 -0.7959,0.4967 -0.2554,0.096 -0.5292,0.144 -0.8213,0.144 -0.4826,0 -0.8523,-0.1171 -1.1119,-0.3528 -0.2583,-0.2357 -0.3881,-0.5376 -0.3881,-0.9031 0,-0.2159 0.048,-0.4121 0.1468,-0.5899 0.0973,-0.1778 0.2257,-0.3203 0.3838,-0.4275 0.1594,-0.1073 0.3372,-0.1891 0.5362,-0.2442 0.1454,-0.0381 0.3655,-0.0762 0.6604,-0.1114 0.6012,-0.072 1.0442,-0.1567 1.3279,-0.2569 0.0028,-0.1016 0.0042,-0.1665 0.0042,-0.1933 0,-0.3034 -0.0705,-0.5179 -0.2117,-0.6406 -0.189,-0.1694 -0.4727,-0.2526 -0.8466,-0.2526 -0.35,0 -0.6082,0.0607 -0.7761,0.1834 -0.1666,0.1228 -0.2893,0.3401 -0.3698,0.652l-0.7267 -0.1002c0.0663,-0.3105 0.175,-0.5631 0.326,-0.7536 0.151,-0.1919 0.3711,-0.34 0.6576,-0.4431 0.2864,-0.103 0.618,-0.1552 0.9962,-0.1552 0.3754,0 0.6788,0.0452 0.913,0.1327 0.2343,0.0889 0.4064,0.1989 0.5179,0.333 0.1101,0.1341 0.1863,0.302 0.2314,0.5066 0.024,0.127 0.0367,0.3556 0.0367,0.6858l0 0.992c0,0.6929 0.0155,1.1303 0.048,1.3123 0.031,0.1835 0.0945,0.3599 0.1877,0.5278l-0.7776 0c-0.0762,-0.1538 -0.127,-0.3344 -0.1481,-0.5419zm-0.0621 -1.6623c-0.271,0.1115 -0.6759,0.2046 -1.215,0.2823 -0.3062,0.0437 -0.5235,0.0931 -0.6491,0.1481 -0.127,0.0551 -0.2258,0.1355 -0.2935,0.2427 -0.0692,0.1059 -0.1044,0.223 -0.1044,0.3528 0,0.199 0.0762,0.3641 0.2257,0.4967 0.1496,0.1313 0.3698,0.1976 0.659,0.1976 0.2865,0 0.5419,-0.0621 0.7649,-0.1877 0.2229,-0.1256 0.388,-0.2977 0.4924,-0.515 0.0805,-0.168 0.12,-0.4163 0.12,-0.7437l0 -0.2738z"/>
  <path class="fil0" d="M35.8852 107.736l0.7351 -0.1157c0.041,0.2949 0.1567,0.5207 0.3458,0.6787 0.1877,0.1566 0.4515,0.2357 0.7916,0.2357 0.3415,0 0.5955,-0.0706 0.7606,-0.2089 0.1651,-0.1397 0.2484,-0.3034 0.2484,-0.4896 0,-0.1694 -0.0734,-0.3006 -0.2202,-0.398 -0.1016,-0.0663 -0.3556,-0.1496 -0.7606,-0.2512 -0.5447,-0.1382 -0.9243,-0.2568 -1.1345,-0.3584 -0.2103,-0.1002 -0.3711,-0.2399 -0.4798,-0.4177 -0.1086,-0.1778 -0.1637,-0.3739 -0.1637,-0.5884 0,-0.1961 0.0452,-0.3768 0.1355,-0.5433 0.0889,-0.1679 0.2117,-0.3062 0.3655,-0.4163 0.1157,-0.0846 0.2737,-0.158 0.4727,-0.2173 0.2004,-0.0592 0.4149,-0.0889 0.6435,-0.0889 0.3443,0 0.6463,0.0508 0.9073,0.1496 0.2611,0.0988 0.453,0.2328 0.5772,0.4022 0.1241,0.1707 0.2088,0.3965 0.2554,0.6801l-0.7268 0.1002c-0.0338,-0.2258 -0.1298,-0.4021 -0.2878,-0.5291 -0.1581,-0.127 -0.3824,-0.1905 -0.6717,-0.1905 -0.3415,0 -0.5856,0.0564 -0.731,0.1693 -0.1467,0.1129 -0.2201,0.2455 -0.2201,0.3965 0,0.0974 0.031,0.1835 0.0917,0.2611 0.0607,0.0804 0.1552,0.1453 0.2851,0.1989 0.0748,0.0268 0.2935,0.0903 0.6575,0.1891 0.5264,0.1411 0.8933,0.2554 1.1007,0.3457 0.2089,0.0889 0.3725,0.2202 0.4911,0.3909 0.1185,0.1708 0.1778,0.3824 0.1778,0.6364 0,0.2484 -0.0734,0.4812 -0.2173,0.7014 -0.1454,0.2187 -0.3542,0.388 -0.6266,0.508 -0.2723,0.1199 -0.5813,0.1792 -0.9257,0.1792 -0.5715,0 -1.0061,-0.1186 -1.3052,-0.3556 -0.2992,-0.2371 -0.4897,-0.5885 -0.5715,-1.0541z"/>
  <path id="1" class="fil0" d="M40.4191 103.842l0 -0.8565 0.7451 0 0 0.8565 -0.7451 0zm0 5.2042l0 -4.39 0.7451 0 0 4.39 -0.7451 0z"/>
  <path id="12" class="fil0" d="M42.9831 109.047l-0.69 0 0 -6.0607 0.7436 0 0 2.1618c0.3147,-0.3937 0.7155,-0.5913 1.2023,-0.5913 0.2709,0 0.5263,0.0551 0.7676,0.1637 0.2413,0.1087 0.4389,0.2625 0.5955,0.4586 0.1553,0.1976 0.278,0.4347 0.3655,0.7141 0.0889,0.2779 0.1327,0.5757 0.1327,0.8918 0,0.7535 -0.1863,1.3349 -0.5588,1.7455 -0.3712,0.4107 -0.8185,0.6153 -1.3392,0.6153 -0.5179,0 -0.9243,-0.2159 -1.2192,-0.6491l0 0.5503zm-0.0085 -2.2282c0,0.5264 0.072,0.906 0.2145,1.1402 0.2343,0.3839 0.5518,0.5758 0.9511,0.5758 0.326,0 0.6068,-0.1411 0.8439,-0.4248 0.237,-0.2822 0.3556,-0.7027 0.3556,-1.2629 0,-0.5729 -0.1143,-0.9963 -0.3415,-1.2686 -0.2272,-0.2724 -0.5024,-0.4092 -0.8241,-0.4092 -0.326,0 -0.6068,0.1411 -0.8439,0.4233 -0.237,0.2822 -0.3556,0.6914 -0.3556,1.2262z"/>
  <path class="fil0" d="M63.2764 123.298l0 -4.39 0.6646 0 0 0.6153c0.1383,-0.2145 0.3218,-0.3881 0.5504,-0.5179 0.2286,-0.1313 0.4896,-0.1976 0.7817,-0.1976 0.3246,0 0.5913,0.0678 0.7987,0.2032 0.2089,0.1355 0.3556,0.3232 0.4403,0.5659 0.3485,-0.5123 0.8001,-0.7691 1.3561,-0.7691 0.436,0 0.7704,0.1214 1.0047,0.3627 0.2342,0.2413 0.3514,0.6124 0.3514,1.1134l0 3.0141 -0.7395 0 0 -2.7658c0,-0.2977 -0.024,-0.5122 -0.0719,-0.6435 -0.0494,-0.1298 -0.1369,-0.2356 -0.2625,-0.316 -0.127,-0.0791 -0.2766,-0.12 -0.4473,-0.12 -0.3091,0 -0.5645,0.103 -0.7691,0.309 -0.2032,0.2047 -0.3062,0.5334 -0.3062,0.985l0 2.5513 -0.7437 0 0 -2.8519c0,-0.3316 -0.0606,-0.5799 -0.182,-0.745 -0.1213,-0.1651 -0.3189,-0.2484 -0.5955,-0.2484 -0.2088,0 -0.4021,0.055 -0.5799,0.1665 -0.1778,0.1101 -0.3077,0.271 -0.3867,0.4826 -0.0804,0.2131 -0.1199,0.5193 -0.1199,0.9187l0 2.2775 -0.7437 0z"/>
  <path id="1" class="fil0" d="M70.332 118.094l0 -0.8565 0.7451 0 0 0.8565 -0.7451 0zm0 5.2042l0 -4.39 0.7451 0 0 4.39 -0.7451 0z"/>
  <path id="12" class="fil0" d="M72.896 123.298l-0.69 0 0 -6.0607 0.7436 0 0 2.1618c0.3147,-0.3937 0.7155,-0.5913 1.2023,-0.5913 0.2709,0 0.5263,0.0551 0.7676,0.1637 0.2413,0.1087 0.4389,0.2625 0.5955,0.4586 0.1553,0.1976 0.278,0.4347 0.3655,0.7141 0.0889,0.2779 0.1327,0.5757 0.1327,0.8918 0,0.7535 -0.1863,1.3349 -0.5588,1.7455 -0.3712,0.4107 -0.8185,0.6153 -1.3392,0.6153 -0.5179,0 -0.9243,-0.2159 -1.2192,-0.6491l0 0.5503zm-0.0085 -2.2282c0,0.5264 0.072,0.906 0.2145,1.1402 0.2343,0.3839 0.5518,0.5758 0.9511,0.5758 0.326,0 0.6068,-0.1411 0.8439,-0.4248 0.237,-0.2822 0.3556,-0.7027 0.3556,-1.2629 0,-0.5729 -0.1143,-0.9963 -0.3415,-1.2686 -0.2272,-0.2724 -0.5024,-0.4092 -0.8241,-0.4092 -0.326,0 -0.6068,0.1411 -0.8439,0.4233 -0.237,0.2822 -0.3556,0.6914 -0.3556,1.2262z"/>
  <polygon class="fil0" points="101.977,115.462 101.977,109.402 102.721,109.402 102.721,115.462 "/>
  <path id="1" class="fil0" d="M106.74 114.92c-0.2766,0.2343 -0.5419,0.3994 -0.7959,0.4967 -0.2554,0.096 -0.5292,0.144 -0.8213,0.144 -0.4826,0 -0.8523,-0.1171 -1.1119,-0.3528 -0.2583,-0.2357 -0.3881,-0.5376 -0.3881,-0.9031 0,-0.2159 0.048,-0.4121 0.1468,-0.5899 0.0973,-0.1778 0.2257,-0.3203 0.3838,-0.4275 0.1594,-0.1073 0.3372,-0.1891 0.5362,-0.2442 0.1454,-0.0381 0.3655,-0.0762 0.6604,-0.1114 0.6012,-0.072 1.0442,-0.1567 1.3279,-0.2569 0.0028,-0.1016 0.0042,-0.1665 0.0042,-0.1933 0,-0.3034 -0.0705,-0.5179 -0.2117,-0.6406 -0.189,-0.1694 -0.4727,-0.2526 -0.8466,-0.2526 -0.35,0 -0.6082,0.0607 -0.7761,0.1834 -0.1666,0.1228 -0.2893,0.3401 -0.3698,0.652l-0.7267 -0.1002c0.0663,-0.3105 0.175,-0.5631 0.326,-0.7536 0.151,-0.1919 0.3711,-0.34 0.6576,-0.4431 0.2864,-0.103 0.618,-0.1552 0.9962,-0.1552 0.3754,0 0.6788,0.0452 0.913,0.1327 0.2343,0.0889 0.4064,0.1989 0.5179,0.333 0.1101,0.1341 0.1863,0.302 0.2314,0.5066 0.024,0.127 0.0367,0.3556 0.0367,0.6858l0 0.992c0,0.6929 0.0155,1.1303 0.048,1.3123 0.031,0.1835 0.0945,0.3599 0.1877,0.5278l-0.7776 0c-0.0762,-0.1538 -0.127,-0.3344 -0.1481,-0.5419zm-0.0621 -1.6623c-0.271,0.1115 -0.6759,0.2046 -1.215,0.2823 -0.3062,0.0437 -0.5235,0.0931 -0.6491,0.1481 -0.127,0.0551 -0.2258,0.1355 -0.2935,0.2427 -0.0692,0.1059 -0.1044,0.223 -0.1044,0.3528 0,0.199 0.0762,0.3641 0.2257,0.4967 0.1496,0.1313 0.3698,0.1976 0.659,0.1976 0.2865,0 0.5419,-0.0621 0.7649,-0.1877 0.2229,-0.1256 0.388,-0.2977 0.4924,-0.515 0.0805,-0.168 0.12,-0.4163 0.12,-0.7437l0 -0.2738z"/>
  <path id="12" class="fil0" d="M109.27 115.462l-0.69 0 0 -6.0607 0.7436 0 0 2.1618c0.3147,-0.3937 0.7155,-0.5913 1.2023,-0.5913 0.2709,0 0.5263,0.0551 0.7676,0.1637 0.2413,0.1087 0.4389,0.2625 0.5955,0.4586 0.1553,0.1976 0.278,0.4347 0.3655,0.7141 0.0889,0.2779 0.1327,0.5757 0.1327,0.8918 0,0.7535 -0.1863,1.3349 -0.5588,1.7455 -0.3712,0.4107 -0.8185,0.6153 -1.3392,0.6153 -0.5179,0 -0.9243,-0.2159 -1.2192,-0.6491l0 0.5503zm-0.0085 -2.2282c0,0.5264 0.072,0.906 0.2145,1.1402 0.2343,0.3839 0.5518,0.5758 0.9511,0.5758 0.326,0 0.6068,-0.1411 0.8439,-0.4248 0.237,-0.2822 0.3556,-0.7027 0.3556,-1.2629 0,-0.5729 -0.1143,-0.9963 -0.3415,-1.2686 -0.2272,-0.2724 -0.5024,-0.4092 -0.8241,-0.4092 -0.326,0 -0.6068,0.1411 -0.8439,0.4233 -0.237,0.2822 -0.3556,0.6914 -0.3556,1.2262z"/>
  <path class="fil0" d="M106.696 41.9838l0.7351 -0.1157c0.041,0.2949 0.1567,0.5207 0.3458,0.6787 0.1877,0.1566 0.4515,0.2357 0.7916,0.2357 0.3415,0 0.5955,-0.0706 0.7606,-0.2089 0.1651,-0.1397 0.2484,-0.3034 0.2484,-0.4896 0,-0.1694 -0.0734,-0.3006 -0.2202,-0.398 -0.1016,-0.0663 -0.3556,-0.1496 -0.7606,-0.2512 -0.5447,-0.1382 -0.9243,-0.2568 -1.1345,-0.3584 -0.2103,-0.1002 -0.3711,-0.2399 -0.4798,-0.4177 -0.1086,-0.1778 -0.1637,-0.3739 -0.1637,-0.5884 0,-0.1961 0.0452,-0.3768 0.1355,-0.5433 0.0889,-0.1679 0.2117,-0.3062 0.3655,-0.4163 0.1157,-0.0846 0.2737,-0.158 0.4727,-0.2173 0.2004,-0.0592 0.4149,-0.0889 0.6435,-0.0889 0.3443,0 0.6463,0.0508 0.9073,0.1496 0.2611,0.0988 0.453,0.2328 0.5772,0.4022 0.1241,0.1707 0.2088,0.3965 0.2554,0.6801l-0.7268 0.1002c-0.0338,-0.2258 -0.1298,-0.4021 -0.2878,-0.5291 -0.1581,-0.127 -0.3824,-0.1905 -0.6717,-0.1905 -0.3415,0 -0.5856,0.0564 -0.731,0.1693 -0.1467,0.1129 -0.2201,0.2455 -0.2201,0.3965 0,0.0974 0.031,0.1835 0.0917,0.2611 0.0607,0.0804 0.1552,0.1453 0.2851,0.1989 0.0748,0.0268 0.2935,0.0903 0.6575,0.1891 0.5264,0.1411 0.8933,0.2554 1.1007,0.3457 0.2089,0.0889 0.3725,0.2202 0.4911,0.3909 0.1185,0.1708 0.1778,0.3824 0.1778,0.6364 0,0.2484 -0.0734,0.4812 -0.2173,0.7014 -0.1454,0.2187 -0.3542,0.388 -0.6266,0.508 -0.2723,0.1199 -0.5813,0.1792 -0.9257,0.1792 -0.5715,0 -1.0061,-0.1186 -1.3052,-0.3556 -0.2992,-0.2371 -0.4897,-0.5885 -0.5715,-1.0541z"/>
  <path id="1" class="fil0" d="M111.23 38.0905l0 -0.8565 0.7451 0 0 0.8565 -0.7451 0zm0 5.2042l0 -4.39 0.7451 0 0 4.39 -0.7451 0z"/>
  <g>
   <line class="fil1 str0" x1="64.5069" y1="5.9804" x2="48.3119" y2="10.8389"/>
  </g>
  <g>
   <line class="fil1 str0" x1="79.0824" y1="5.3326" x2="95.2774" y2="10.1911"/>
  </g>
  <path class="fil0" d="M85.2329 4.5316l0.5126 0.1016c-0.0329,0.2541 0.001,0.4619 0.1007,0.6237 0.1007,0.1618 0.2456,0.2691 0.4366,0.3246 0.2295,0.0658 0.4487,0.0348 0.6566,-0.0931 0.2088,-0.1271 0.3536,-0.334 0.4355,-0.62 0.0781,-0.2719 0.064,-0.5079 -0.0442,-0.7092 -0.1072,-0.2014 -0.2851,-0.3369 -0.5325,-0.4083 -0.1533,-0.0434 -0.302,-0.049 -0.4458,-0.0142 -0.143,0.0339 -0.2663,0.0969 -0.3688,0.1882l-0.4309 -0.1873 0.9483 -1.8861 1.9304 0.5532 -0.1308 0.4562 -1.5494 -0.445 -0.5079 0.984c0.2793,-0.0959 0.5474,-0.1063 0.8032,-0.0329 0.3388,0.0969 0.5909,0.2964 0.7574,0.5983 0.1655,0.3011 0.1957,0.6369 0.0893,1.0057 -0.1006,0.3517 -0.2897,0.6255 -0.5682,0.8231 -0.3395,0.2427 -0.7243,0.3029 -1.1552,0.1787 -0.3527,-0.1006 -0.6124,-0.2822 -0.7799,-0.5446 -0.1664,-0.2615 -0.2182,-0.5607 -0.157,-0.8966z"/>
  <path id="1" class="fil0" d="M89.2638 6.3623l-0.0526 0.4412c-0.1421,-0.0104 -0.2663,-0.031 -0.3716,-0.0611 -0.1731,-0.0499 -0.3001,-0.1157 -0.3791,-0.1976 -0.0799,-0.0819 -0.1261,-0.1731 -0.1402,-0.2737 -0.0131,-0.1007 0.0217,-0.2935 0.1035,-0.5795l0.4637 -1.6181 -0.3489 -0.1007 0.1062 -0.3706 0.3491 0.1007 0.2003 -0.6971 0.556 -0.1497 -0.2822 0.9822 0.4798 0.1374 -0.1063 0.3706 -0.4798 -0.1374 -0.4713 1.6454c-0.0386,0.1355 -0.0555,0.2257 -0.0499,0.2691 0.0057,0.0432 0.0236,0.0828 0.0556,0.1166 0.031,0.0338 0.0818,0.0602 0.1523,0.0809 0.0536,0.0151 0.1252,0.0292 0.2154,0.0414z"/>
  <path id="12" class="fil0" d="M89.5555 6.9417l1.1138 -3.8824 0.476 0.1364 -0.3989 1.3932c0.2963,-0.1937 0.6143,-0.2426 0.953,-0.1457 0.2079,0.0602 0.3773,0.1533 0.508,0.2793 0.1298,0.1261 0.207,0.2709 0.2315,0.4346 0.0253,0.1638 -0.002,0.3839 -0.0809,0.6595l-0.5119 1.7817 -0.4759 -0.1363 0.5107 -1.7827c0.0687,-0.238 0.0669,-0.4262 -0.0056,-0.5644 -0.0724,-0.1383 -0.2032,-0.2343 -0.3913,-0.2889 -0.1421,-0.0404 -0.285,-0.0423 -0.4308,-0.0046 -0.1449,0.0376 -0.2626,0.1119 -0.3509,0.222 -0.0894,0.11 -0.1656,0.2756 -0.2287,0.4967l-0.4411 1.5381 -0.477 -0.1365z"/>
  <path class="fil0" d="M51.59 8.3015m-0.0855 -1.0805l0.4856 -0.1947c0.1111,0.2316 0.2521,0.3872 0.4235,0.4685 0.1724,0.0812 0.3531,0.0928 0.5429,0.0347 0.2285,-0.0698 0.3955,-0.2153 0.5004,-0.4353 0.1056,-0.2211 0.1148,-0.4737 0.0279,-0.7581 -0.0828,-0.2708 -0.2235,-0.4608 -0.4235,-0.5709 -0.1998,-0.1101 -0.4226,-0.1275 -0.669,-0.0522 -0.153,0.0468 -0.2799,0.124 -0.3819,0.2309 -0.1021,0.1069 -0.1709,0.2263 -0.2073,0.3584l-0.4628 0.0786 -0.2326 -2.0989 1.9216 -0.5875 0.1386 0.4534 -1.5419 0.4714 0.1087 1.1019c0.1826,-0.2328 0.4016,-0.3883 0.6562,-0.4662 0.3374,-0.1031 0.6574,-0.0731 0.9611,0.0899 0.3036,0.1629 0.5115,0.4279 0.6237,0.7949 0.107,0.3499 0.0968,0.6836 -0.0286,1.0004 -0.1529,0.3881 -0.4433,0.648 -0.8715,0.7789 -0.3518,0.1076 -0.6688,0.0972 -0.9512,-0.0319 -0.2824,-0.129 -0.489,-0.3511 -0.6199,-0.6662zm3.0553 0.1774m1.2619 -0.8501l0.1965 0.3984c-0.1246,0.0685 -0.2398,0.1195 -0.3451,0.1517 -0.1727,0.0528 -0.3142,0.0665 -0.4263,0.0408 -0.1109,-0.0252 -0.1995,-0.0767 -0.2654,-0.154 -0.0657,-0.0764 -0.1427,-0.2574 -0.2296,-0.5417l-0.4923 -1.6103 -0.3481 0.1064 -0.1128 -0.3688 0.3481 -0.1064 -0.212 -0.6936 0.3854 -0.4288 0.2989 0.978 0.4769 -0.1458 0.1127 0.3688 -0.4768 0.1458 0.5003 1.6364c0.0415,0.1358 0.0761,0.2197 0.1041,0.2535 0.0289,0.0334 0.0652,0.0558 0.1102,0.0676 0.0446,0.011 0.1022,0.0061 0.1724,-0.0154 0.0531,-0.0162 0.1204,-0.0437 0.2029,-0.0826zm0.2499 0.3986m0.3562 -0.1089l-1.1813 -3.8639 0.4742 -0.1449 0.4238 1.3862c0.1429,-0.324 0.3834,-0.5382 0.7208,-0.6413 0.2068,-0.0633 0.3994,-0.0769 0.5774,-0.0418 0.1776,0.0342 0.3221,0.114 0.4318,0.2379 0.1096,0.1238 0.207,0.3233 0.2906,0.5968l0.5424 1.774 -0.475 0.1453 -0.5424 -1.7741c-0.0723,-0.2366 -0.1764,-0.3937 -0.3119,-0.4702 -0.1357,-0.0766 -0.2982,-0.087 -0.4862,-0.0295 -0.1403,0.0429 -0.2613,0.1202 -0.3631,0.231 -0.102,0.1108 -0.1599,0.2368 -0.1738,0.3778 -0.0151,0.1403 0.0116,0.321 0.0787,0.5406l0.4682 1.5311 -0.4742 0.145z"/>
  <g>
   <line class="fil1 str0" x1="70.0132" y1="7.276" x2="70.0132" y2="15.3735"/>
  </g>
  <path class="fil0" d="M71.5459 12.0394l0.4957 -0.0658c0.0574,0.2812 0.1543,0.4835 0.2907,0.6077 0.1374,0.1241 0.3039,0.1862 0.5005,0.1862 0.2333,0 0.4308,-0.0809 0.5917,-0.2427 0.1599,-0.1618 0.2408,-0.3622 0.2408,-0.6011 0,-0.2277 -0.0743,-0.4158 -0.2229,-0.5635 -0.1496,-0.1477 -0.3387,-0.222 -0.5682,-0.222 -0.0941,0 -0.2107,0.0188 -0.35,0.0555l0.0555 -0.4356c0.033,0.0038 0.0593,0.0057 0.08,0.0057 0.2107,0 0.4007,-0.0555 0.5701,-0.1656 0.1693,-0.1101 0.254,-0.2803 0.254,-0.5099 0,-0.1815 -0.0621,-0.333 -0.1853,-0.4515 -0.1233,-0.1195 -0.2823,-0.1797 -0.477,-0.1797 -0.1929,0 -0.3537,0.0611 -0.4817,0.1816 -0.1288,0.1213 -0.2116,0.3038 -0.2483,0.5465l-0.4958 -0.0884c0.0602,-0.333 0.1985,-0.5908 0.413,-0.7733 0.2154,-0.1825 0.4826,-0.2747 0.8025,-0.2747 0.2201,0 0.4233,0.048 0.6086,0.1421 0.1853,0.095 0.3274,0.2239 0.4262,0.3875 0.0978,0.1637 0.1477,0.3368 0.1477,0.5212 0,0.1741 -0.0471,0.333 -0.1412,0.477 -0.094,0.143 -0.2323,0.2568 -0.4158,0.3415 0.239,0.0545 0.4243,0.1693 0.557,0.3433 0.1317,0.1731 0.1975,0.3904 0.1975,0.651 0,0.3528 -0.1279,0.6519 -0.3857,0.8975 -0.2568,0.2455 -0.5823,0.3678 -0.9755,0.3678 -0.3547,0 -0.6491,-0.1054 -0.8834,-0.317 -0.2342,-0.2108 -0.3678,-0.4845 -0.4007,-0.8213z"/>
  <path id="1" class="fil0" d="M74.8149 13.1062l0 -2.9266 0.4459 0 0 0.4431c0.1138,-0.207 0.2192,-0.3443 0.3161,-0.4102 0.0959,-0.0658 0.2022,-0.0997 0.3179,-0.0997 0.1675,0 0.3368,0.0536 0.5099,0.1599l-0.1712 0.461c-0.1204,-0.0725 -0.2418,-0.1082 -0.3631,-0.1082 -0.1091,0 -0.206,0.0329 -0.2926,0.0978 -0.0865,0.0659 -0.1477,0.1562 -0.1844,0.2719 -0.0555,0.1759 -0.0827,0.3688 -0.0827,0.5785l0 1.5325 -0.4958 0z"/>
  <path id="12" class="fil0" d="M78.5985 13.1062l0 -0.3697c-0.1853,0.2907 -0.4581,0.4356 -0.8184,0.4356 -0.2333,0 -0.4478,-0.064 -0.6435,-0.1929 -0.1956,-0.1279 -0.3471,-0.3076 -0.4553,-0.539 -0.1072,-0.2305 -0.1608,-0.4949 -0.1608,-0.795 0,-0.2916 0.0489,-0.5569 0.1458,-0.7949 0.0978,-0.238 0.2436,-0.4205 0.4383,-0.5465 0.1948,-0.127 0.413,-0.191 0.6539,-0.191 0.1759,0 0.333,0.0376 0.4703,0.1119 0.1383,0.0744 0.2503,0.1712 0.3368,0.2907l0 -1.4496 0.4929 0 0 4.0404 -0.46 0zm-1.5682 -1.461c0,0.3754 0.079,0.6557 0.2371,0.8411 0.158,0.1853 0.3443,0.2784 0.5597,0.2784 0.2164,0 0.4008,-0.0894 0.5522,-0.2662 0.1515,-0.1769 0.2277,-0.4478 0.2277,-0.8119 0,-0.4007 -0.0771,-0.6942 -0.2314,-0.8814 -0.1543,-0.1882 -0.3443,-0.2813 -0.571,-0.2813 -0.2202,0 -0.4046,0.0903 -0.5523,0.27 -0.1477,0.1797 -0.222,0.4638 -0.222,0.8513z"/>
 </g>
 <g id="Layer_x0020_2">
  <metadata id="CorelCorpID_1Corel-Layer"/>
  <path class="fil2 str0" d="M40.5377 74.1617c-0.3322,6.1211 9.1006,16.0853 10.1521,16.93 7.3634,5.9149 16.1563,10.1167 26.4492,10.1167 12.131,0 23.0784,-5.5842 30.8365,-13.5047 7.2878,-7.4405 12.6769,-19.4087 11.763,-30.7145 -0.5561,-6.8788 -0.6647,-6.4834 -2.8888,-13.5343 -7.1411,-22.6394 -26.3603,-31.0088 -48.4168,-31.0088 -29.4088,0 -53.2493,23.206 -53.2493,51.832 0,17.1756 7.1522,32.7252 18.7157,43.9809 11.5634,11.2556 27.5382,18.2175 45.1834,18.2175 17.6453,0 33.6201,-8.5813 45.1836,-19.837"/>
 </g>
</svg>