<svg xmlns="http://www.w3.org/2000/svg" width="96" height="40" fill="none"><path fill="#000" d="M44 7.412V0h8.17v7.412H44ZM59.182 35.914c-2.695-2.706-4.042-6.396-4.042-11.072 0-4.593 1.403-8.285 4.183-11.047 2.779-2.762 6.485-4.143 11.173-4.143 3.958 0 7.187 1.007 9.657 3.044 2.47 2.037 3.959 4.819 4.548 8.398h-8.45c-.702-3.02-2.751-4.79-5.867-4.79-2.106 0-3.79.788-5.054 2.366-1.263 1.579-1.909 3.636-1.909 6.172 0 2.537.646 4.63 1.91 6.172 1.263 1.542 2.947 2.367 5.053 2.367 3.144 0 5.306-1.86 5.867-4.903h8.506c-.589 3.579-2.133 6.369-4.688 8.426-2.555 2.057-5.84 3.1-9.854 3.1-4.688-.004-8.366-1.357-11.033-4.09ZM44 39.662V9.986h8.17v29.676H44ZM87.408 9.986v29.676h8.164V9.986h-8.164ZM87.408 0v7.412h8.164V0h-8.164Z"/><path fill="#0064F5" d="M20 40c11.046 0 20-8.954 20-20S31.046 0 20 0 0 8.954 0 20s8.954 20 20 20Z"/><path fill="#000" d="M20 20H0v20h20V20Z"/><path fill="#001ED2" fill-rule="evenodd" d="M19.968 40H20V20H0c0 11.035 8.937 19.983 19.968 20Z" clip-rule="evenodd"/></svg>